<?xml version="1.0" encoding="utf-8"?>
<!-- Generator: Adobe Illustrator 16.0.0, SVG Export Plug-In . SVG Version: 6.00 Build 0)  -->
<!DOCTYPE svg PUBLIC "-//W3C//DTD SVG 1.1//EN" "http://www.w3.org/Graphics/SVG/1.1/DTD/svg11.dtd">
<svg version="1.1" id="Layer_1_xA0_Image_1_" xmlns="http://www.w3.org/2000/svg" xmlns:xlink="http://www.w3.org/1999/xlink"
	 x="0px" y="0px" width="578px" height="653px" viewBox="0 0 578 653" enable-background="new 0 0 578 653" xml:space="preserve">
<g>
	<g>
		<path fill="none" d="M320,633c-104.972,0-209.943-0.018-314.915,0.082c-3.237,0.003-4.192-0.396-4.19-3.995
			c0.117-208.109,0.112-416.22,0.028-624.33C0.922,1.652,1.6,0.919,4.742,0.921C185.526,1.01,366.311,1.015,547.095,0.895
			c3.613-0.002,3.989,0.977,3.986,4.198C550.984,118.395,551,231.697,551,345c-2.65-2.84-5.216-2.695-7.993-0.043
			c-1.525,1.457-3.53,2.404-5.101,3.823c-3.066,2.77-4.417,6.514-2.799,10.216c1.406,3.217,5.341,2.879,8.33,3.135
			c2.838,0.243,4.557-3.181,7.562-3.131c0,90-0.025,180,0.096,270c0.005,3.424-0.671,4.104-4.096,4.097
			C483.333,632.965,419.667,633,356,633c1.9-3.109,1.812-6.511,1.588-9.979c-0.876-13.562-1.635-27.165,0.603-40.639
			c3.338-20.098,6.482-40.197,8.372-60.506c0.518-5.562,1.548-10.945,6.702-15.75c10.272-9.578,22.494-16.636,32.49-26.222
			c7.853-7.529,16.735-12.976,25.817-18.439c1.841-1.107,3.912-2.96,5.724-2.794c8.074,0.74,15.324-5.783,23.664-2.43
			c1.288,0.518,3.577,0.788,4.592-0.835c1.187-1.9-2.634-1.76-1.898-4.036c7.208-0.062,13.243,1.411,18.037,7.954
			c4.934,6.733,11.683,11.794,20.271,13.583c1.746,0.364,3.608,1.059,4.614-1.734c-1.988-0.539-3.879-1.059-5.773-1.563
			c-2.807-0.748-5.197-2.252-7.072-4.402c-3.546-4.065-6.502-8.771-10.527-12.261c-4.16-3.608-6.059-4.826,1.189-8.576
			c6.085-3.147,10.585-7.573,14.528-13.138c3.354-4.732,6.532-9.474,8.716-14.812c0.797-1.949,4.27-4.263,1.678-5.84
			c-1.972-1.199-3.259,2.548-4.241,4.468c-5.235,10.226-12.616,18.515-22.149,24.862c-3.388,2.255-7.105,3.735-11.567,3.424
			c6.487-8.926,12.839-17.405,18.914-26.078c10.221-14.593,23.451-23.738,41.856-23.978c1.053-0.014,2.487,0.113,2.39-2.232
			c-7.492-0.731-14.981-0.883-23.391,1.396c2.414-4.551,4.251-8.245,6.297-11.819c4.725-8.255,10.572-14.771,21.397-13.354
			c1.189,0.155,1.225-0.11,3.007-2.49c-6.147,2.527-13.058-1.461-18.923,3.078c-2.022-8.751,4.628-15.967,4.008-24.261
			c-1.913,0.036-2.118,0.698-2.305,1.309c-2.221,7.259-5.717,14.096-6.11,21.95c-0.401,7.994-7.363,12.605-10.742,19.694
			c-1.497-8.417-9.96-16.63-17.541-18.112c-2.927-0.571-3.571,0.396-3.55,2.899c0.036,4.166-0.273,8.357,0.092,12.491
			c0.341,3.847,1.838,7.258,5.861,8.953c2.335,0.984,4.529,2.3,7.269,3.715c-2.425,1.166-4.072,3.258-6.041,1.863
			c-5.221-3.699-9.854-1.017-14.271,1.235c-8.609,4.39-15.837,10.884-23.726,16.382c-0.986,0.688-2.042,2.081-3.448,1.233
			c-1.3-0.783-1.113-2.361-1.019-3.67c0.467-6.491,1.886-12.7,4.591-18.707c5.231-11.613,13.27-21.408,20.057-32.015
			c11.44-17.882,21.523-36.615,33.829-53.963c0.796-1.121,3-2.597,1.254-4.232c-2.071-1.941-3.329,0.539-4.371,1.713
			c-2.851,3.212-4.868,1.529-5.987-1.192c-1.176-2.862-1.483-6.08-2.186-9.139c-0.609-2.653,0.079-4.464,2.931-5.312
			c9.614-2.86,16.858-9.216,23.214-16.567c2.111-2.441,5.181-4.702,5.168-8.587c-1.965-0.355-2.423,1.973-4.558,1.724
			c0-4.094-0.082-8.218,0.03-12.336c0.066-2.447-1.314-4.419-2.885-5.497c-1.768-1.215-3.683,0.743-5.292,1.792
			c-4.717,3.074-7.265,7.855-9.694,12.71c-1.51,3.018-1.073,6.269-0.596,9.293c0.513,3.239,2.692,5.69,6.391,6.455
			c-2.277,2.526-5.203,2.349-7.596,3.386c-7.201,3.121-8.328,2.268-8.328-5.423c0.001-8.169-0.6-16.344-3.475-23.98
			c-0.997-2.65-2.281-8.097-5.741-6.852c-4.014,1.444-1.5,6.202-0.301,9.127c3.618,8.821,2.725,17.978,2.778,27.089
			c0.013,2.157-0.92,3.538-3.229,3.565c-7.162,0.088-14.146,1.486-21.152,2.764c-1.754,0.319-2.532,0.397-1.864-2.31
			c1.359-5.515,3.857-10.895,3.033-16.867c-0.315-2.289,0.042-4.663-0.068-6.991c-0.112-2.375,0.721-3.684,3.213-4.127
			c2.766-0.491,5.569-1.108,8.151-2.169c1.845-0.759,4.571-1.447,3.002-4.797c-2.521-5.381-13.222-11.321-19.017-10.357
			c-6.188,1.029-9.098,8.458-5.321,13.306c1.732,2.225,4.612,2.929,6.36,4.61c-9.165,5.645-20.207,9.035-22.738,20.735
			c-1.173,5.417-2.424,12.232,3.869,16.452c-3.948,2.863-7.916,5.741-12.306,8.925c-0.851-19.123,0.347-37.506,6.714-55.244
			c2.424-6.752,2.606-6.686,9.611-5.347c0.326,0.062,0.669,0.145,0.99,0.104c1.381-0.168,3.558,0.685,3.803-1.244
			c0.294-2.318-1.816-2.103-3.538-2.208c-4.49-0.276-5.753-1.949-4.173-5.501c3.22-7.236,7.279-13.764,14.826-17.375
			c1.772-0.849,3.268-2.272,4.906-3.406c0.717-0.496,1.469-1.085,0.985-1.982c-0.43-0.798-1.454-0.933-2.215-0.556
			c-4.553,2.259-9.813,2.966-13.589,6.975c-3.332,3.539-6.445,7.127-8.656,11.492c-0.525,1.038-1.554,2.569-3.128,1.179
			c-1.174-1.038-0.401-2.148,0.409-3.042c1.007-1.11,2.177-2.079,3.13-3.229c3.057-3.691,6.634-7.042,8.564-11.524
			c3.776-8.768,6.576-17.854,8.477-27.222c0.323-1.597,1.442-3.65-0.585-4.263c-2.197-0.663-2.592,1.888-2.789,3.32
			c-1.274,9.235-5.657,17.258-9.896,25.272c-2.138,4.042-4.718,8.181-8.082,11.167c-5.225,4.637-12.436,5.461-19.436,8.54
			c0.839-4.442,2.87-7.301,5.291-9.663c3.104-3.029,4.299-6.378,4.281-10.681c-0.022-5.423,2.062-10.349,5.119-14.831
			c4.522-6.636,10.091-12.341,15.846-17.885c2.545-2.451,5.096-5.205,5.662-8.631c1.229-7.429,3.797-14.409,5.999-21.534
			c1.642-5.312,4.368-9.094,10.182-10.157c3.132-0.573,5.9-2.196,8.441-4.092c0.876-0.653,2.148-1.475,1.733-2.738
			c-0.471-1.433-2.247-0.029-3.396-0.896c3.373-2.741,2.847-7.036,4.819-10.264c0.962-1.575,0.343-3.441-1.996-3.504
			c-3.657-0.097-7.414-0.464-10.956,0.2c-3.951,0.74-7.543,2.927-8.948,7.035c-1.133,3.31,1.548,5.42,3.335,7.752
			c2.009,2.62,5.118,0.88,7.528,2.153c-1.845-0.866-3.339,1.061-4.85,0.638c-2.75-0.771-3.748,5.344-6.273,1.889
			c-1.461-1.998-0.991-5.429-1.316-8.224c-0.115-0.985-0.04-1.998-0.003-2.997c0.104-2.814,1.393-5.488,0.93-8.385
			c-0.222-1.385-0.633-3.107-1.885-3.198c-1.663-0.121-1.447,1.766-1.797,3.03c-2.121,7.68-1.444,15.314-0.17,23.035
			c0.426,2.578,1.241,5.693-2.101,7.557c-1.371,0.765-0.034,2.49-0.67,3.737c-0.835-9.025-3.142-11.66-11.058-13.093
			c-2.08-0.377-3.471,0.264-4.814,1.747c-1.468,1.621-1.584,3.533-0.495,5.024c1.329,1.821,1.292,3.691,1.33,5.669
			c0.156,8.075,5.412,11.563,12.355,8.307c0.285,10.002-6.102,16.021-13.832,22.645c1.654-10.291-3.822-15.544-11.058-19.549
			c-3.099-1.716-5.213-0.612-5.393,3.046c-0.171,3.492,0.148,7.014-0.119,10.494c-0.43,5.584,1.358,9.682,6.772,11.877
			c1.069,0.434,2.97,0.713,1.699,2.675c-3.317,5.126-3.929,11.185-5.898,16.772c-2.308,6.547-4.663,13.008-11.419,16.688
			c-3.946,2.15-7.764,5.183-9.63,9.194c-3.003,6.455-7.933,11.387-11.921,17.034c-1.747,2.474-3.807,5.276-7.064,6.079
			c-4.669,1.149-8.361,3.612-11.86,6.862c-4.271,3.968-10.937,4.701-14.526,1.933c6.452-0.069,11.778-2.016,13.661-8.405
			c0.852-2.892,2.134-5.484,1.757-9.315c-0.506-5.122-2.733-2.95-4.472-2.764c-2.429,0.261-4.312,2.717-7.994,2.471
			c11.355-8.699,22.534-16.139,32.146-25.485c9.186-8.932,17.812-18.157,21.805-30.968c3.835-12.305,5.141-24.947,6.598-37.59
			c0.699-6.059,0.878-12.243,0.584-18.336c-0.484-10.026-3.982-18.829-12.261-25.181c-0.262-0.2-0.618-0.394-0.722-0.669
			c-1.315-3.52-5.019-4.175-7.633-5.984c-1.955-1.354-5.176-0.362-5.31,2.523c-0.394,8.498-4.316,16.765-0.374,25.627
			c2.538,5.705,13.69,13.578,19.208,9.384c4.621-3.512,3.181-7.886,3.885-12.086c0.51,15.885-1.166,31.527-5.005,47.342
			c-3.054-5.683-8.157-8.745-13.328-11.525c-3.756-2.02-3.61-4.253-1.44-7.114c2.506-3.304,4.007-6.905,3.46-11.117
			c-0.189-1.453,0.77-3.959-1.746-3.834c-2.048,0.103-1.994,2.426-1.877,4.063c0.283,3.966-0.394,7.461-4.016,9.93
			c-0.791-2.527-0.09-4.707,0.902-6.852c1.019-2.201,1.064-4.426,0.253-6.692c-8.107,1.625-3.537,9.075-6.296,13.191
			c-2.556-1.272-2.796-3.916-3.652-6.184c-0.904-2.395-0.753-5.181-2.54-7.301c-1.725,0.697-1.52,2.114-1.691,3.412
			c-0.674,5.079,1.089,9.826,3.652,13.714c2.082,3.158,1.127,4.872-0.248,7.408c-4.113,7.588-2.71,17.604,4.063,22.735
			c4.377,3.316,3.171,5.521,0.461,8.602c-2.316,2.633-4.846,4.941-7.78,6.898c-4.898,3.268-9.13,7.28-11.265,12.924
			c-1.417,3.746-4.377,5.521-7.811,6.155c-7.043,1.302-12.777,4.329-16.653,10.503c-1.971,3.138-3.752,1.912-5.321-0.368
			c-3.189-4.635-3.289-10.165,0.271-14.658c5.616-7.087,7.067-15.247,5.726-23.71c-0.65-4.101-1.554-8.122-1.374-12.282
			c0.123-2.87-0.082-5.737-1.144-8.338c-1.859-4.553-2.072-11.087-6.157-13.095c-4.531-2.228-8.596-5.445-13.491-7.053
			c-5.116-1.68-6.826-0.787-6.924,4.405c-0.038,1.998-0.098,4.006,0.031,5.998c0.402,6.232,6.266,12.262,11.857,12.601
			c2.068,0.126,4.957-1.74,5.932,2.133c0.596,2.37,3.675,4.154,2.98,6.657c-1.918,6.918-1.496,14.782-7.425,20.483
			c-0.959-1.661-1.113-3.304-0.41-4.521c2.312-4,2.73-4.714,2.615-6.646c-0.547-9.175-0.383-8.688-9.179-5.719
			c-6.955,2.348-11.557,5.976-13.786,13.176c-1.714,5.537,0.735,9.739,6.471,10.699c5.193,0.87,8.237-3.254,13.408-4.573
			c-10.042,13.946-15.271,28.396-10.425,45.25c-2.259-1.986-4.467-3.138-6.273-5.134c-2.831-3.129-6.427-6.017-11.093-6.472
			c-4.095-0.399-8.013,0.96-10.184,4.082c-2.034,2.924-2.469,6.97,0.338,10.215c3.092,3.577,6.478,6.551,11.771,6.367
			c6.341-0.22,12.717,0.014,17.117-5.841c2.108,4.206,1.239,7.566-1.742,11.337c-5.729,7.243-11.021,14.773-14.999,23.306
			c-3.047,6.536-4.202,13.539-6.823,20.121c-0.48,1.203-0.938,2.1-2.131,2.404c-0.742,0.189-1.1-0.471-1.439-1.084
			c-3.596-6.481-7.119-12.99-9.107-20.318c6.736-0.055,13.228-0.334,17.025-6.471c2.828-4.57,5.819-9.315,6.093-14.911
			c0.255-5.207-1.105-6.211-6.288-4.815c-7.93,2.134-16.066,4.011-21.068,11.781c-3.005-3.467-3.548-7.563-5.242-11.086
			c-0.859-1.785-0.06-4.581,1.903-5.718c9.217-5.332,12.021-14.178,13.856-23.804c2.062-10.822,1.643-23.11,15.017-27.917
			c0.413-0.148,0.711-0.686,1.004-1.085c0.662-0.905,0.541-1.976,0.094-2.818c-0.557-1.052-1.773-0.877-2.688-0.609
			c-1.096,0.321-2.11,0.939-3.136,1.476c-10.082,5.267-12.748,14.884-15.21,24.937c-1.674,6.835-0.719,15.637-10.632,17.924
			c-0.871,0.201-1.317,2.88-3.234,1.88c-1.81-0.944-1.118-2.919-1.29-4.525c-0.744-6.939,3.846-12.44,5.103-18.869
			c0.582-2.977,3.793-5.892,3.423-8.495c-0.57-4.008,6.388-0.795,3.975-5.111c4.985-1.867,5.532-7.828,9.372-10.42
			c3.094-2.088,3.614-4.733,3.395-7.573c-0.19-2.447,0.031-4.559,1.031-6.732c1.903-4.135,1.436-8.765,4.625-13.023
			c1.979-2.642,2.045-8.118,4.336-11.701c4.06-6.347,4.76-14.128,9.264-20.336c1.344-1.854,2.372-4.551,2.551-7.381
			c0.412-6.525,1.386-13.015,2.205-20.157c1.216,1.018,2.049,1.522,2.633,2.232c4.423,5.384,9.719,6.176,14.818,1.605
			c3.328-2.981,4.417-7.539,5.98-11.574c0.671-1.732-2.806-2.976-3.379-2.825c-6.515,1.705-15.756-2.632-18.056,8.837
			c-1.027-2.14-0.565-3.621,0.053-4.174c5.638-5.044,8.643-11.859,12.566-18.062c1.832-2.897,4-4.993,1.316-9.123
			c-2.122-3.266-4.007-7.995-0.399-11.979c3.95-4.362,4.483-10.543,8.405-15.006c1.394-1.586,1.77-4.548,1.288-7.091
			c-3.781,0.86-3.444-3.754-6.015-4.527c-0.846-0.254-1.599-0.313-2.531,0.536c3.333,3.765,1.891,6.337-1.837,9.163
			c-3.215,2.438-4.98,5.92-5.376,10.514c-0.981,11.419-1.281,23.127-8.413,33.117c-1.139,1.596-2.321,2.632-3.831,2.339
			c-0.596-0.116-1.827-1.874-1.421-3.944c0.548-2.787,0.079-5.491-1.599-8.582c-2.662-4.907-4.611-10.871-1.481-16.799
			c1.209-2.292,0.855-4.819,0.841-7.331c-0.025-4.081-1.584-4.933-4.723-2.53c-3.851,2.948-7.064,2.221-10.089-1.177
			c-0.436-0.49-0.959-1.027-1.551-1.235c-4.461-1.571-4.74-5.002-4.035-8.879c0.766-4.209,0.923-8.39-0.182-13.198
			c-3.446,3.165-5.179,6.552-5.872,11.147c-2.121-4.645-1.814-4.598-1.581-6.13c1.243-8.153,6.752-16.335,0.001-24.501
			c-0.887-1.072-0.956-3.45-2.738-2.958c-1.564,0.432-2.179,2.476-2.184,4.174c-0.007,2.65,0.373,5.304,0.346,7.953
			c-0.021,1.99,0.715,4.336-1.377,5.689c-2.224-3.236-6.911-5.363-2.963-10.772c-4.895,2.228-5.253,1.767-10.692,0.957
			c-2.446-0.364-5.716-0.306-8.055,1.475c-5.542,4.217-5.575,4.366-10.185-0.929c-2.532-2.908-4.419-3.786-5.673,0.8
			c-0.336,1.229-0.773,2.42-2.221,2.104c-1.543-0.337-3.456-0.433-3.921-2.524c-0.216-0.971-0.159-2.024-0.498-2.939
			c-0.403-1.09-1.208-2.348-2.443-2.072c-0.966,0.215-1.91,1.223-2.528,2.112c-0.6,0.86-0.42,2.137,0.542,2.658
			c2.063,1.117,2.132,2.486,1.326,4.483c-0.482,1.193-0.301,2.528,1.129,3.459c3.4,2.212,6.248,5.322,11.099,4.277
			c2.376-0.511,5.016,0.546,6.771,2.493c4.732,5.253,10.745,8.403,16.963,11.549c3.918,1.982,9.42,3.486,8.924,9.89
			c-0.084,1.082,0.693,1.112,1.644,1.244c3.896,0.538,5.332,3.35,6.143,6.832c1.848,7.935,4.575,15.659,5.72,23.764
			c0.258,1.817,2.264,3.722-0.586,5.399c-0.956,0.562-0.012,1.299,0.923,1.515c1.612,0.373,2.245,1.713,1.877,3.039
			c-1.219,4.386-2.888,8.652-3.969,13.066c-0.581,2.368-3.965-0.066-3.531,2.11c1.255,6.302-5.48-0.376-5.459,3.544
			c0.354-3.945-3.601-3.726-5.422-5.563c-3.976-4.013-5.187-9.278-6.927-14.354c-0.731-2.133-1.254-5.411-4.978-2.568
			c-1.014,0.774-2.695,0.229-3.442-1.126c-0.738-1.34-1.361-3.369-0.27-4.236c4.712-3.742,3.184-9.168,4.032-13.886
			c0.344-1.916,0.616-4.563-2.049-5.787c-3.167,4.381-0.678,9.961-3.854,14.137c-0.923,1.213-1.543,2.819-3.18,2.768
			c-1.647-0.052-3.175-0.839-3.963-2.572c-0.398-0.875,0.219-2.718-1.808-2.225c-3.377,0.821-6.053-1.259-9.044-2.062
			c-7.222-1.939-14.552-2.584-22.019-1.763c-3.166,0.349-4.562,2.708-4.4,5.033c0.176,2.509,3.009,2.508,5.188,2.573
			c2.813,0.085,5.62,0.444,8.401,0.659c5.37,0.415,9.976,3.438,15.343,3.708c2.32,0.117,1.976,2.26,1.49,3.904
			c-1.622,5.486-3.302,10.956-4.958,16.433c-0.284,0.94-0.409,2.053-1.868,1.681c-1.28-7.194-6.302-10.905-13.718-11.269
			c-4.42-0.216-8.709,0.662-13.094,0.561c-1.877-0.044-4.878-1.107-5.702,0.969c-1.117,2.817-1.679,6.32,0.348,9.098
			c3.398,4.654,7.126,9.121,12.16,12.114c3.884,2.31,7.836,3.743,12.75,2.379c4.871-1.353,6.71-4.456,7.842-8.975
			c-2.646,6.032-0.176,11.748,0.143,17.542c0.587,10.701,4.463,20.113,10.032,29.045c1.81,2.902,3.738,5.841,3.954,9.449
			c-3.371,1.229-6.839,1.954-9.968,4.087c-6.216,4.237-6.862,11.294-9.428,17.328c-0.931,2.19,1.289,3.836,3.513,3.589
			c4.409-0.49,8.723-1.602,12.759-3.553c7.12-3.439,7.282-10.246,8.072-16.744c0.64,4.113,1.812,7.732,1.237,12.484
			c-0.817,6.754-1.845,13.673-2.343,20.557c-0.148,2.043-1.524,3.465-2.168,5.241c-1.671-1.026-3.5,1.299-5.261-0.416
			c-6.213-6.046-13.016-11.455-20.787-15.242c-3.968-1.934-6.103-5.682-6.011-8.513c0.167-5.165-1.042-10.124-1.455-15.103
			c-0.331-3.996-0.879-8.764-3.978-12.305c2.054,0.313,4.023,0.43,6.011-0.034c6.92-1.613,8.853-4.145,8.635-11.236
			c-0.083-2.717-0.014-5.437-0.014-8.155c2.083,2.233,0.345,5.131,2.704,7.242c0.513-4.424,0.665-8.843,0.461-13.244
			c-0.141-3.048-3.692-4.23-4.901-3.335c-6.671,4.946-18.263,4.175-19.169,16.025c-0.096,1.25-2.51,1.641-2.371,1.101
			c0.902-3.486-3.048-4.043-3.48-6.473c-1.137-6.383-4.055-12.137-6.192-18.167c-0.634-1.788-0.993-3.516,0.103-5.666
			c1.458-2.858,2.079-6.2,2.731-9.4c1.509-7.413,2.642-14.879,7.329-21.249c1.22-1.659,1.211-4.519-0.534-5.805
			c-1.687-1.243-2.874,1.096-3.788,2.271c-4.881,6.282-6.786,13.837-9.153,21.253c-0.979,3.068-1.092,8.457-7.256,6.21
			c-1.396-0.509-1.716,1.04-2.287,2.062c-2.289,4.099,0.292,8.05,0.222,12.093c-2.378,0.256-3.312-1.013-3.434-3.196
			c-0.286-5.11-3.659-9.552-3.169-14.869c0.117-1.265-0.548-2.883-1.949-3.124c-1.763-0.304-1.526,1.448-1.551,2.476
			c-0.089,3.745-2.75-1.159-3.244,1.008c-5.087-2.172-10.441-0.813-15.664-1.188c-2.867-0.205-5.088,0.786-6.839,3.149
			c-3.953,5.334-8,10.643-10.785,16.673c-2.919,6.322-0.201,10.105,6.782,9.835c4.468-0.173,9.021-0.228,13.357-1.163
			c5.164-1.114,10.169-3.378,11.85-8.998c0.78-2.609,0.133-5.646,0.133-9.418c2.543,3.839,0.947,7.08,3.666,10.457
			c3.034,3.771,4.895,9.113,8.021,13.18c1.576,2.051-0.489,5.278,3.453,6.542c7.944,2.547,11.784,9.628,15.763,16.358
			c1.13,1.912,2.09,3.467-0.634,4.709c-2.22,1.012-4.908,3.594-6.477-0.164c-1.503-3.601-4.138-3.051-6.866-3.231
			c-3.893-0.258-6.913,2.694-5.211,5.862c1.434,2.67,2.873,6.041,6.294,7.058c3.048,0.904,4.489,3.035,5.452,6.298
			c-3.035-2.62-6.571-1.235-9.778-2.019c-7.064-1.726-14.367-2.213-21.352-4.517c-3.414-1.126-5.527-4.101-3.08-6.826
			c2.881-3.208,1.438-5.682-0.146-8.444c-0.958-1.671-1.841-3.413-3.009-4.929c-3.602-4.674-7.787-8.751-13.24-11.206
			c-1.073-0.483-2.791-1.317-3.442,1.203c-2.134,8.261-3.336,16.51-0.683,25.023c-12.734-2.962-23.253-9.626-33.22-17.343
			c-2.174-1.684-4.027-3.306-7.293-3.451c-2.97-0.132-5.387-2.701-5.374-6.367c2.305,2.867,4.544,5.414,8.618,5.698
			c2.511,0.175,2.897-2.472,4.855-2.896c0.429-0.094,0.538-1.335-0.423-1.403c-2.979-0.212-1.016-3.541-3.689-4.168
			c2.628-0.701,3.079,1.431,4.87,1.714c-2.238-4.671,2.428-11.259-5.364-14.603c-1.674-0.719-4.49-2.336-6.436-4.124
			c-2.051-1.886-4.691,0.679-7.104,0.08c0.177,1.757,0.083,3.601,0.613,5.243c0.475,1.471,0.856,2.744,0.108,4.207
			c-1.666-0.729-1.53-4.258-4.298-2.845c-2.34,1.195-1.305,3.497-1.115,5.337c0.203,1.958,0.808,3.82,2.224,5.399
			c3.197,3.562,4.345,8.624,9.392,11.672c-1.817-0.204-2.662-0.198-3.452-0.404c-10.323-2.687-14.679-0.928-20.292,8.463
			c-0.701,1.172-1.756,1.33-2.675,1.949c-2.096,1.413-1.891,7.94,0.312,8.5c4.771,1.213,9.369,3.271,14.56,2.618
			c8.485-1.067,12.523-5.249,12.536-13.515c0.002-1.435,0-2.869,0-4.748c8.657,7.754,17.323,14.563,27.649,18.967
			c2.743,1.169,2.097,2.894,0.31,4.621c-6.35,6.137-13.357,10.297-22.599,11.259c-6.662,0.694-13.066-1.013-19.591-0.319
			c-0.698,0.074-1.395-0.821-2.098,0.33c-2.826,4.623-2.687,4.963,3.307,6.453c3.21,0.798,6.338,1.874,9.724,1.965
			c15.17,0.407,27.028-6.538,37.518-16.643c1.301-1.254,1.841-3.358,4.71-2.531c8.891,2.562,17.903,4.698,26.852,7.062
			c3.401,0.897,6.758,1.964,10.574,3.081c-6.938,6.734-12.038,14.136-16.807,21.78c-2.978,4.773-7.333,8.098-11.783,11.303
			c-0.813,0.585-1.994,1.591-3.163,0.542c-0.812-0.729-0.59-2.675-0.456-2.662c3.298,0.308,1.876-2.394,1.726-3.291
			c-1.514-9.027-8.821-12.64-16.365-8.73c-2.63,1.363-5.43,4.33-3.83,7.172c2.16,3.838,3.682,8.753,8.304,10.555
			c3.258,1.27,4.903,2.479,1.263,6.376c11.186-0.404,19.378-4.083,25.677-12.008c4.642-5.839,9.254-11.728,14.279-17.229
			c6.153-6.736,14.663-7.94,23.057-7.553c4.297,0.197,8.593,2.605,12.682,4.47c3.822,1.741,8.611,2.514,10.011,7.504
			c2.749,9.798,11.316,14.197,18.207,20.304c4.506,3.993,11,6.407,12.32,13.506c0.273,1.466,2.164,3.876,2.469,3.882
			c3.934,0.077,3.853,3.553,5.319,5.707c2.251,3.31,1.426,7.979,3.562,10.742c4.463,5.775,3.838,12.971,6.778,19.059
			c1.609,3.333-1.026,4.327-3.488,4.942c-8.655,2.165-17.015,0.601-25.655-2.069c3.025-1.151,7.15-7.151,7.516-10.5
			c1.101-10.06-8.396-25.279-18.003-28.758c-2.593-0.938-4.64,0.152-4.507,2.812c0.365,7.319-3.417,14.162-2.222,21.542
			c0.136,0.841,0.509,2.031-0.806,2.734c-7.832-6.298-16.128-11.97-25.507-16.897c14.077-10.25,7.153-25.175,9.791-39.104
			c-11.674,7.6-24.997,11.874-26.599,27.8c-0.354,3.519,2.189,6.005,1.668,9.354c-4.818-0.519-9.797,0.962-14.725,2.327
			c-6.379,1.769-8.047,1.195-11.476-5.69c5.169,1.122,8.494-1.569,10.043-5.528c1.407-3.594,0.674-7.731,0.583-11.688
			c-0.102-4.417-1.975-3.645-4.589-2.643c-5.453,2.091-9.9,5.432-12.521,10.912c-1.827-1.825-1.588-4.48-4.123-4.801
			c-2.435,5.435-0.749,12.347,4.393,19.233c4.062,5.442,8.979,10.247,12.269,16.257c0.914,1.668,2.085,3.223,0.919,5.531
			c-2.892,5.729-2.281,6.419,4.239,7.836c10.615,2.306,21.174,4.87,32.046,7.394c-1.177,2.847-3.044,4.727-5.417,5.206
			c-3.49,0.706-6.944,2.165-10.709,1.225c-1.835-0.458-3.809-0.892-4.539,2.128c-0.739,3.06,0.79,3.747,3.109,4.441
			c2.327,0.696,4.491,0.547,6.833-0.028c6.752-1.657,12.701-4.796,17.949-9.271c1.628-1.389,3.029-1.775,5.328-1.446
			c8.195,1.175,15.417,4.082,21.891,10.336c-4.972,1.501-9.527,2.829-14.051,4.256c-4.359,1.375-7.456,4.166-9.115,8.48
			c-0.48,1.25-1.226,2.614,0.055,3.666c1.033,0.849,2.165-0.315,3.184-0.387c3.833-0.265,7.027-2.465,10.708-3.119
			c7.2-1.278,14.563-1.177,21.728-2.269c10.599-1.615,20.892-6.647,31.82-1.674c0.417,0.19,0.995,0.093,1.488,0.041
			c2.585-0.269,4.104,1.044,4.874,3.347c3.797,11.354,10.185,21.544,14.662,32.611c1.744,4.312,4.251,8.36,6.555,13.577
			c-16.933-7.292-33.737-10.199-51.082-10.253c-1.045-2.518,1.841-3.935,1.631-6.458c-0.57-6.842-3.379-11.906-9.824-14.715
			c-3.031-1.321-5.384-5.936-9.015-3.655c-3.513,2.207-1.587,6.75-1.481,10.169c0.259,8.434,3.887,16.498,13.994,14.604
			c1.182-0.222,2.543,0.518,3.821,0.812c-12.222,0.462-24.478-0.107-36.977,1.818c1.82-5.149,5.093-9.382,3.292-14.562
			c-1.012-2.91-2.145-5.879-3.824-8.426c-1.355-2.056-1.183-5.93-4.514-5.835c-3.049,0.086-3.86,3.004-4.51,5.707
			c-0.289,1.204-1.463,2.168-2.077,3.325c-2.086,3.93-3.686,7.932-3.391,12.596c0.222,3.523,3.316,5.388,4.423,8.337
			c-13.878,3.08-26.41-0.057-38.917-6.26c14.98-5.671,17.476-13.173,19.233-27.679c0.198-1.63-0.299-3.395,0.775-4.844
			c1.78-2.4,1.655-4.473-0.618-6.538c-2.314-2.103-4.745-0.722-6.302,0.42c-3.003,2.2-6.287,3.749-9.589,5.228
			c-8.83,3.954-16.071,8.979-15.009,20.587c-5.527-9.248-8.171-18.927-12.031-28.342c6.208,2.261,11.621-0.658,12.666-6.939
			c1.48-8.9-0.931-16.982-6.163-24.202c-1.449-2-3.303-2.866-4.818,0.287c-3.141,6.539-8.231,12.29-7.688,20.662
			c-5.219-5.501-10.807-9.559-16.961-12.901c5.704-4.84,9.072-10.572,7.528-18.505c0.977,0.846,0.074,2.255,1.392,2.584
			c1.672-6.067,0.49-8.263-4.168-7.022c-3.96,1.055-8.094,2.008-11.585,4.355c-5.117,3.441-4.019,8.794-4.129,13.821
			c-0.079,3.582,2.797,3.794,6.125,5.141c-3.425-0.613-5.055,0.639-6.945,1.741c1.731,2.365,4.265,2.918,6.417,4.025
			c2.206,1.136,4.55,2.001,6.81,3.037c1.021,0.469,2.561,0.791,2.38,2.164c-0.173,1.319-1.687,1.245-2.806,1.541
			c-7.872,2.083-9.86,4.761-10.001,12.908c-0.04,2.277,0.758,4.766-0.797,6.787c-1.287,1.673-0.967,2.549,0.402,4.153
			c1.521,1.782,2.692,1.479,4.23,0.653c3.49-1.874,6.875-4.072,10.345-5.806c4.029-2.014,0.754-6.724,4.364-8.522
			c0.621-0.31,0.49-3.401-0.23-4.682c-0.477-0.847-2.527-1.313-1.077-2.512c1.757-1.453,2.652,0.778,3.354,1.819
			c2.977,4.417,5.381,9.221,7.046,14.232c4.888,14.71,8.012,30.219,20.322,41.514c-10.042-0.672-19.375-3.216-29.412-6.595
			c7.471-3.961,10.664-9.298,10.224-16.831c-0.147-2.53-2.779-4.085-2.119-6.876c0.43-1.817-0.541-3.211-2.429-3.781
			c-1.926-0.581-2.942,1.061-3.555,2.102c-3.067,5.21-8.45,9.489-6.901,16.897c-9.385-11.716-23.988-18.211-29.552-32.964
			c-0.785-2.083-1.258-3.082-0.411-5.535c1.021-2.955,2.835-5.8,2.97-9.158c0.425-10.642-4.499-18.292-13.023-24.038
			c1.077-0.282,2.978-0.24,2.637-1.646c-1.727-7.118,3.593-11.611,6.083-17.133c1.106-2.452,0.865-4.864-0.981-6.358
			c-2.44-1.978-3.293-6.755-8.15-5.104c-0.472,0.161-2.001-1.087-2.1-1.809c-0.513-3.769-4.591-5.641-4.813-9.595
			c-0.081-1.428-1.429-2.792-3.099-2.772c-1.521,0.018-2.866,0.761-3.307,2.495c-0.654,2.575-2.79,4.421-3.25,7.206
			c-0.344,2.086-1.976,3.205-3.877,1.04c-2.058-2.343-5.112-2.976-7.638-4.5c-1.933-1.166-4.94-1.618-6.319,0.687
			c-1.352,2.259-3.041,5.175-0.288,7.829c0.946,0.913,2.506,1.569,2.278,3.047c-0.73,4.729,2.971,7.165,5.651,10.589
			c-3.355,0.854-6.248,1.516-9.097,2.33c-7.362,2.107-12.575,9.112-12.554,15.461c0.015,4.297,4.636,4.435,5.573,7.674
			c0.54,1.864,2.044,3.276,4.081,2.979c2.405-0.352,1.98-2.73,2.414-4.411c0.442-1.717-0.249-3.219-0.993-4.711
			c-1.212-2.433-1.195-2.441,1.486-4.48c0.859,1.005,0.45,2.219,0.533,3.34c0.086,1.161-0.088,2.363,0.146,3.486
			c0.585,2.808,3.311,3.823,5.084,1.786c1.757-2.018,3.206-4.92,1.428-7.134c-1.976-2.459-0.938-3.671,0.859-4.653
			c1.886-1.031,3.627-3.746,6.371-0.765c4.613,5.016,10.361,5.937,16.743,3.78c1.397-0.473,3.104-1.933,4.232,0.505
			c-4.444,5.149-5.4,11.634-7.279,17.877c-3.407,11.32-0.326,17.537,11.14,20.543c0.876,0.229,2.133-0.683,2.402,1.445
			c1.177,9.299,6.249,16.517,12.682,23.038c5.672,5.75,11.932,11.04,15.951,18.212c0.707,1.262,2.971,2.563,1.386,4.265
			c-1.188,1.275-3.078,0.491-4.722,0.09c-22.201-5.422-40.485-17.467-56.613-33.242c7.549-6.689,9.278-14.404,4.595-22.587
			c-1.085-1.896-3.671-3.661-6.229-1.569c-4.492,3.673-8.262,8.053-10.628,13.377c-1.042,2.345-1.927,5.252,0.458,7.432
			c4.377,4,7.451,9.195,12.324,12.911c-10.991,1.333-19.081,9.494-20.277,20.24c-0.85,7.63,0.276,8.705,8.006,7.647
			c12.628-1.729,17.149-6.265,18.666-18.712c0.094-0.772-0.263-1.83,0.829-2.106c1.115-0.281,1.798,0.62,2.539,1.271
			c16.562,14.562,35.98,23.216,57.445,27.462c3.045,0.603,3.081,1.504,1.224,3.273c-3.966,3.778-7.349,8.173-11.925,11.311
			c-2.862,1.963-4.365,4.913-6.793,9.001c10.074-4.164,17.204-9.877,22.926-17.276c3.604-4.661,7.68-5.659,13.463-4.768
			c11.101,1.712,22.339,2.601,33.545,3.527c9.648,0.798,19.035,2.495,27.919,6.447c1.11,0.494,3.188,1.149,2.052,2.7
			c-2.775,3.789-4.047,9.021-9.096,10.759c-3.669,1.265-6.729,3.485-9.97,5.447c-0.052-0.826-0.24-1.671-0.136-2.478
			c1.525-11.83-5.464-13.708-13.766-15.831c-3.104-0.794-4.632,0.312-4.963,3.545c-1.226,11.961,5.335,18.42,16.999,16.625
			c-1.722,1.242-2.963,3.054-2.88,5.021c0.293,6.937-4.482,8.182-9.678,9.621c-3.113,0.862-4.077,0.147-3.729-2.819
			c0.49-4.179-1.137-6.858-4.495-9.638c-5.878-4.865-12.117-4.693-18.763-3.254c-1.885,0.407-4.756-0.768-5.282,2.44
			c-0.465,2.838-0.602,5.855,2.151,7.678c3.61,2.39,4.122,7.553,8.521,9.214c0.421,0.159,0.81,1.946,0.524,2.199
			c-3.806,3.366,0.383,2.732,1.614,3.009c4.309,0.968,8.562-0.105,12.847-0.62c12.423-1.495,22.971-6.934,31.039-16.22
			c3.502-4.031,7.218-6.008,12.087-6.66c3.61-0.484,7.265-0.654,10.859-1.221c8.84-1.395,17.609-2.936,25.388-7.938
			c3.957-2.545,8.393-2.644,12.925-1.046c5.042,1.778,10.091,2.494,15.586,1.335c8.542-1.802,16.267-5.63,24.315-8.661
			c1.19-0.448,2.138-1.731,3.571-0.592c5.82,4.626,11.637,9.251,16.295,15.131c1.742,2.199,1.325,3.344-1.554,3.131
			c-8.674-0.642-17.237,1.476-25.894,0.991c-2.636-0.147-5.251-0.636-7.883-0.895c-1.408-0.138-2.906,0.319-3.508,1.489
			c-0.762,1.481,0.821,2.368,1.743,3.179c3.576,3.147,8.029,3.943,12.539,3.884c6.297-0.082,12.586-0.807,18.883-0.864
			c6.979-0.064,14.724,4.752,16.399,10.287c5.733,18.929,12.7,37.605,12.707,58.224c-6.896-3.094-14.128-4.822-20.582-8.529
			c2.436-0.264,4.911-0.343,7.299-0.842c2.153-0.45,4.127-1.521,4.435-4.069c0.283-2.358,0.208-4.654-2.13-6.172
			c-0.826-0.536-1.645-1.148-2.295-1.878c-3.171-3.56-4.562-1.968-6.165,1.602c-1.556,3.464-1.768,6.989-2.023,10.598
			c-1.875-4.213-2.337-9.026-5.176-13.152c-2.509,3.086-1.716,5.925-0.785,8.83c0.817,2.552,0.498,3.796-2.771,2.78
			c-2.812-0.874-5.841-1.185-8.801-1.428c-8.025-0.658-15.592-2.873-22.728-6.517c-3.088-1.576-6.208-3.271-4.986-7.823
			c0.661-2.461-1.177-4.023-2.825-5.403c-3.542-2.967-7.682-4.221-12.301-4.555c-1.933-0.14-3.758-0.588-4.889,1.148
			c-1.035,1.589-0.784,3.52-0.019,5.271c2.125,4.87,5.276,9.22,10.458,10.52c4.634,1.162,1.937,3.683,1.682,5.462
			c-0.378,2.634-2.436,3.536-4.878,2.43c-4.836-2.19-9.69-4.376-13.531-8.243c-5.16-5.195-10.377-10.334-15.57-15.496
			c11.871,2.956,20.206-5.502,21.738-16.727c1.084-7.943,0.721-16.146-1.872-24.003c-0.62-1.876-1.74-3.215-3.536-3.809
			c-1.75-0.579-2.432,0.783-3.481,1.975c-2.496,2.833-5.213,5.455-8.218,7.848c-5.929,4.724-9.417,11.182-11.201,18.504
			c-1.042,4.279,1.536,7.537,3.435,10.979c0.36,0.652,0.156,1.614,0.212,2.434c-4.541-5.537-10.207-9.686-17.031-11.589
			c-6.365-1.775-13.016-2.567-18.51,2.771c0.928,1.349,2.417,1.397,3.941,1.508c12.87,0.931,22.669,7.145,30.943,16.873
			c7.122,8.374,13.04,17.979,22.847,23.944c-3.07,1.574-3.07,1.574-5.135,1.128c-6.711-1.451-19.114-15.437-20.142-22.717
			c-0.023-0.164,0.005-0.338-0.03-0.498c-0.295-1.347,0.606-3.473-1.391-3.765c-2.074-0.305-2.547,1.891-3.06,3.364
			c-1.569,4.515-3.55,5.4-7.893,2.83c-4.597-2.72-8.054-6.949-13.282-9.023c-7.804-3.097-15.179-8.125-23.592-1.773
			c-1.373,1.036-2.664,0.27-3.642-0.521c-3.663-2.963-8.11-5.518-7.761-11.192c0.139-2.251-0.533-2.629-2.748-2.777
			c-5.666-0.381-8.863,1.652-11.222,7.498c-1.856,4.6-1.353,10.327-6.307,13.51c-0.264,0.17-0.402,1.049-0.209,1.301
			c0.334,0.438,0.973,0.642,1.484,0.944c-0.816,0.038-1.65,0.199-2.446,0.09c-1.48-0.204-0.813-1.576-1.167-2.403
			c-0.451-1.052,0.81-3.041-1.43-3.046c-0.855-0.002-2.156,0.647-2.475,1.353c-0.617,1.36-2.209,3.002-0.531,4.458
			c1.099,0.953,1.487,1.597,1.537,3.181c0.097,3.112,2.242,4.932,5.352,3.875c4.969-1.689,9.685-1.274,14.427,0.57
			c3.404,1.325,7.334,0.355,10.587,2.479c0.628,0.41,1.637,0.194,2.279-0.5c0.686-0.741,1.175-2.788,2.438-1.256
			c1.801,2.188,2.767,4.958,2.031,7.897c-0.346,1.381-1.15,2.239-2.953,1.469c-2.17-0.926-2.529,0.809-2.635,2.374
			c-0.076,1.118,0.627,3.235,0.994,2.856c1.522-1.577,3.648-0.006,5.154-1.586c1.715-1.802,0.928-4.495,2.671-6.129
			c1.406,1.953,1.104,4.165,1.028,6.31c-0.072,2.043-0.72,3.67-3.29,3.229c-1.156-0.197-2.414-0.637-2.537,1.229
			c-0.086,1.318-0.401,2.786,0.715,3.769c0.933,0.819,2.168,0.675,3.299,0.185c1.04-0.451,1.685-1.933,2.977-1.572
			c6.07,1.693,5.959-2.872,6.539-6.501c0.962-6.021-3.791-9.67-6.18-14.309c-0.789-1.533-2.506-2.947-1.843-4.849
			c2.673-7.66,6.404-9.067,13.79-5.152c2.475,1.312,4.863,2.897,7.011,4.693c5.138,4.293,10.327,8.384,17.4,8.728
			c2.242,0.109,3.682,1.082,4.614,3.14c2.53,5.582,5.888,10.594,11.302,14.783c-2.456,0.855-4.415,1.257-6.091,2.176
			c-5.104,2.796-10.201,4.077-16.192,2.857c-3.29-0.67-7.51-1.646-10.407,1.541c-4.151,4.564-9.563,5.757-15.266,6.186
			c-2.253,0.169-3.964,0.717-4.47,3.051c-0.537,2.476,1.552,2.995,3.152,3.781c5.555,2.726,11.361,3.277,17.374,1.925
			c-4.134,3.525-7.091,7.464-8.96,12.955c-1.363,4.006,1.86,6.061,1.22,9.347c-0.816,4.189,1.522,7.979,3.092,11.66
			c2.238,5.251,2.875,5.147,6.739,0.845c1.323-1.474,2.711-2.905,4.196-4.214c7.628-6.719,6.968-15.589,6.388-24.43
			c-0.108-1.646-1.524-3.118-2.626-3.382c-3.267-0.781-5.755-3.386-9.176-3.614c4.662-0.481,9.192-1.737,13.388-3.638
			c4.713-2.135,9.576-2.111,14.179-1.146c6.254,1.311,10.934-1.566,14.494-5.31c3.49-3.669,6.9-6.358,11.851-7.257
			c4.066-0.739,8.081-1.766,12.115-2.681c8.387-1.902,16.904-1.224,25.354-0.99c5.743,0.157,6.447,1.97,3.315,6.564
			c-4.362,6.399-9.657,11.721-16.891,14.934c-3.344,1.484-6.627,3.232-8.696,6.675c1.975,0.935,3.495,0.428,5.146,0.007
			c11.233-2.866,18.649-10.438,24.532-19.834c1.716-2.741,3.092-3.717,6.219-1.595c5.755,3.905,11.667,7.667,17.854,10.818
			c3.791,1.932,4.395,4.428,4.518,8.243c0.591,18.339-2.002,36.415-4.23,54.507c-1.88,15.266-4.785,30.414-6.361,45.704
			C319.604,621.874,316.872,627.514,320,633z M478.806,172.129c-1.063-0.461-1.96-0.855-2.862-1.238
			c-4.585-1.945-8.962-4.466-14.005-5.151c-1.733-0.236-3.294,0.026-4.362,1.692c-0.716,1.115-0.994,2.335-0.028,3.193
			c3.832,3.406,6.702,7.67,10.252,11.348c3.903,4.044,10.881,3.667,13.045,9.74c9.118,3.031,9.747,10.131,8.969,18.147
			c-0.241,2.488,1.774,5.368,3.988,4.812c3.888-0.977,6.602,0.584,9.675,2.071c1.363,0.661,2.946,0.593,4.156-0.684
			c0.76-0.802,0.818-1.794,0.666-2.802c-0.105-0.698-0.495-1.255-1.259-1.334c-0.699-0.071-1.534,0.156-1.534,0.886
			c-0.005,5.079-2.53,1.496-3.461,0.82c-4.38-3.183-5.116-8.155-6.366-12.855c1.351,0.549,2.158,1.374,3.021,2.136
			c2.337,2.062,10.014,1.849,12.122-0.361c1.142-1.196,1.534-2.568,0.481-4.056c-0.621-0.877-1.488-1.516-2.538-1.054
			c-1.379,0.607-2.375,1.419-0.514,2.83c0.888,0.672,0.117,1.243-0.591,1.236c-3.219-0.029-5.742-1.59-7.73-3.979
			c-1.446-1.737-3.258-3.344-1.736-6.141c1.65-3.035,3.403-5.149,6.628-7.3c4.892-3.262,9.96-7.855,10.136-15.516
			c0.061-2.614-0.086-6.152,1.776-8.851c0.912-1.32,2.394-2.948,0.83-4.445c-1.781-1.705-3.75-0.508-5.435,0.656
			c-4.268,2.951-8.048,6.478-11.493,10.325c-2.685,2.999-4.632,5.661-7.274-0.319c-1.565-3.542-5.208-5.128-9.322-3.276
			C478.982,164.938,477.461,167.633,478.806,172.129z M382.294,76.845c1.293-2.869,3.933-3.932,5.644-5.854
			c4.729-5.312,8.984-10.767,8.425-18.498c-0.203-2.803-1.078-5.219-4.194-5.129c-2.355,0.067-4.115-0.967-6.11-1.683
			c-1.149-0.412-2.427-1.539-3.641-0.114c-1.206,1.418-1.13,3.098-0.631,4.731c0.471,1.538,1.686,2.132,3.14,1.529
			c1.844-0.764,2.546,0.051,2.639,1.681c0.219,3.87,0.344,7.75-3.113,11.564c0.692-5.136,1.586-9.602-3.383-12.157
			c-1.841-0.948-3.342-0.463-3.992,1.477c-0.573,1.709-1.091,3.665,0.893,4.937c2.351,1.505,1.54-2.162,3.062-2.199
			c0.925,1.718,0.988,3.389,0.817,5.039c-0.775,7.479-2.032,10.188-9.377,11.921c-8.884,2.098-12.781-7.099-20.267-7.994
			c-1.296-0.154-2.19-3.698-4.631-2.378c-2.421,1.311-3.24,3.909-2.534,6.471c0.605,2.2,1.634,4.436,3.019,6.238
			c3.161,4.117,6.177,7.974,3.54,13.689c-0.664,1.438,0.127,3.59,0.373,5.396c0.228,1.673,1.143,2.574,2.988,2.708
			c7.56,0.55,15.272,2.58,22.115-2.741c0.481-0.375,1.255-0.593,1.868-0.549c5.355,0.391,8.891-2.3,12.285-6.163
			c1.621-1.845,2.303-4.474,4.65-5.685c2.199-1.135,4.273-2.611,3.07-5.398c-1.18-2.731-3.891-1.852-6.171-1.858
			C389.39,75.814,386.196,78.097,382.294,76.845z M457.352,494.041c0-2.478,0.066-4.312-0.011-6.14
			c-0.438-10.292-4.485-18.317-14.259-22.81c-4.897-2.251-14.397,1.753-16.174,6.922c-2.277,6.629,0.776,18.482,6.228,22.7
			c5.95,4.604,12.142,8.899,18.291,13.24c1.57,1.108,2.661,1.532,4.161-0.99C458.242,502.497,456.816,497.9,457.352,494.041z
			 M288.652,449.102c0,3.147,0.036,5.479-0.008,7.808c-0.07,3.664,1.288,7.676,3.432,9.574c1.924,1.705,4.144-2.762,6.434-4.211
			c1.39-0.88,2.644-2.017,4.109-2.728c4.747-2.301,8.582-5.707,12.045-9.587c6.342-7.106,6.159-17.987,2.588-22.93
			c-1.988-2.754-5.208-6.093-8.512-5.672c-5.305,0.677-10.721,2.127-14.327,7.233C289.82,435.094,288.01,442.117,288.652,449.102z
			 M75.213,202.949c0.082-1.352,1.339-2.817-0.757-3.866c-8.72-4.363-19.872-4.356-26.801,3.446
			c-4.587,5.164-8.07,10.795-10.818,16.968c-1.81,4.066,0.774,7.825,5.106,7.848c4.816,0.025,9.632,0.045,14.448-0.004
			c10.882-0.111,16.075-4.874,16.981-15.485c0.066-0.774-0.29-1.761,0.721-2.189c2.166-0.92,2.159-0.895,1.783-2.834
			C75.626,205.543,75.433,204.244,75.213,202.949z M352.666,160.626c0,1.126,0.051,1.796-0.007,2.457
			c-0.934,10.644,6.599,15.894,14.672,18.577c3.939,1.31,9.248-1.562,9.734-5.541c0.812-6.655,3.776-12.934,0.534-20.238
			c-3.735-8.414-10.143-13.677-16.903-18.95c-1.652-1.289-3.491-0.684-3.724,1.467C356.144,146.085,351.916,153.116,352.666,160.626
			z M505.05,355.345c1.753,0.391,3.84-0.606,6.047-1.407c7.745-2.811,12.038-9.104,15.875-15.724
			c2.422-4.18,2.506-9.11,2.955-13.805c0.199-2.075-0.664-3.955-3.632-3.051c-3.94,1.201-7.903,2.387-11.93,3.229
			c-9.227,1.93-16.928,5.204-20.317,15.357C491.146,348.639,495.153,355.388,505.05,355.345z M139.336,437.771
			c-0.099-6.772-9.266-12.195-16.422-9.543c-12.367,4.585-16.688,15.431-20.124,26.728c-0.74,2.435-0.591,5.847,3.633,5.296
			c6.385-0.831,12.884-1.245,18.966-3.613C134.852,452.952,139.465,446.629,139.336,437.771z M177.351,511.229
			c-0.483-2.005,0.873-4.571-1.487-6.659c-5.35-4.733-13.143-4.721-19.232-0.965c-8.636,5.327-10.546,14.983-15.593,22.579
			c-1.483,2.231-0.532,5.086,3.523,5.216c5.875,0.188,11.496-1.203,17.221-2.008C171.173,528.072,177.35,521.082,177.351,511.229z
			 M93.374,417.008c-0.259-2.909,0.757-6.015-2.143-8.305c-6.059-4.783-21.732-1.587-24.236,5.564
			c-2.058,5.878-5.386,11.059-7.663,16.773c-1.78,4.471-0.285,7.3,4.634,7.214c7.299-0.127,14.278-1.389,20.502-5.918
			C89.855,428.418,93.703,424.015,93.374,417.008z M104.035,253.683c5.878-0.199,12.079-0.354,14.176-7.747
			c2.335-8.232,1.891-14.248-8.174-15.66c-7.894-1.106-22.551,7.974-25.083,15.526c-0.738,2.2-0.483,4.991,2.263,5.14
			C92.898,251.247,98.008,254.655,104.035,253.683z M199.34,48.476c-2.312,0.144-4.674,0.039-6.924,0.493
			c-2.934,0.592-4.645,2.861-3.126,5.515c3.552,6.206,6.607,12.81,12.929,17.067c4.88,3.287,12.539,3.088,15.785-0.974
			c4.275-5.351,3.326-12.607-1.804-16.932C211.229,49.456,205.381,48.943,199.34,48.476z M316.073,29.526
			c-0.61-2.726-1.455-3.389-3.42-1.8c-2.421,1.958-5.247,3.452-7.511,5.562c-5.412,5.043-9.82,10.669-8.479,18.825
			c0.564,3.432,2.337,6.545,5.418,7.483c3.018,0.919,6.427,1.168,9.561-1.574c8.012-7.013,8.3-16.378,8.156-25.704
			c-0.034-2.273,1.618-6.191-2.756-7.629C316.749,26.156,316.468,27.561,316.073,29.526z M520.624,413.676
			c-2.631-0.099-5.421,0.195-7.163,1.811c-5.073,4.702-2.872,13.948,3.433,17.04c5.594,2.743,11.516,2.741,17.446,3.22
			c1.463,0.118,3.07,1.065,4.207-0.234c1.315-1.506,1.176-3.636,0.314-5.2c-2.455-4.457-4.498-9.271-8.581-12.598
			C527.469,415.423,524.475,413.357,520.624,413.676z M256.657,339.476c-0.026,11.388-0.026,11.388,6.94,8.15
			c0.603-0.28,1.188-0.629,1.819-0.814c5.904-1.74,9.902-4.922,12.872-10.894c2.389-4.805,0.424-7.518-1.999-9.744
			c-2.968-2.729-7.381-2.47-10.705-0.139C259.817,330.079,256.828,335.898,256.657,339.476z M249.707,510.719
			c-3.278-0.176-6.66,0.594-9.999,1.61c-3.176,0.968-3.715,3.289-2.366,5.834c2.522,4.755,14.116,10.072,19.455,8.986
			c3.352-0.682,6.207-2.007,6.529-6.251c0.326-4.286-0.675-7.539-5.056-9.027C255.579,510.958,252.8,510.569,249.707,510.719z
			 M172.55,103.663c-1.332,4.791,3.211,5.961,7.071,8.025c2.897,1.55,5.381-0.079,5.923-1.688c1.508-4.478,2.792-9.329,2.596-13.968
			c-0.11-2.615-1.729-5.705-2.923-8.487c-2.026-4.716-3.986-5.165-6.78-1.048C175.187,91.285,172.596,96.459,172.55,103.663z
			 M105.326,392.333c0.315-2.187-0.971-4.441-2.868-6.443c-4.37-4.61-10.362-4.946-16.044-5.687
			c-2.426-0.315-3.683,1.863-3.489,4.434c0.375,4.968,7.619,13.727,12.484,15.092C100.225,401.079,105.24,397.693,105.326,392.333z
			 M504.536,251.348c5.377,0.067,11.328-4.433,12.471-9.604c0.451-2.041,0.351-4.333-2.267-4.755
			c-3.756-0.604-7.512-1.632-11.386-1.042c-5.329,0.811-8.858,4.161-8.55,8.093C495.15,248.434,498.938,251.279,504.536,251.348z
			 M240.353,59.595c0,0.005,0,0.011,0,0.016c-0.995-0.062-2.061-0.387-2.973-0.14c-3.331,0.901-7.416,1.51-8.337,5.293
			c-0.808,3.316-1.903,7.504,1.363,10.269c3.299,2.792,7.125,2.221,10.731,0.117c2.121-1.236,6.532-11.399,5.901-13.57
			c-0.324-1.114-1.153-1.604-2.203-1.707C243.347,59.726,241.848,59.682,240.353,59.595z M530.038,315.295
			c6.239,0.006,8.329-1.434,6.916-4.706c-1.362-3.156-3.094-6.335-5.919-8.452c-3.398-2.546-7.372-2.354-10.753-0.244
			c-2.869,1.791-2.3,5.483-1.077,7.703C521.503,313.765,525.648,315.619,530.038,315.295z"/>
		<path fill-rule="evenodd" clip-rule="evenodd" d="M249.476,362.634c17.344,0.054,34.148,2.961,51.081,10.253
			c-2.304-5.217-4.811-9.266-6.555-13.577c-4.478-11.067-10.865-21.257-14.662-32.611c-0.77-2.303-2.289-3.615-4.874-3.347
			c-0.494,0.052-1.071,0.149-1.488-0.041c-10.928-4.974-21.221,0.059-31.82,1.674c-7.164,1.092-14.528,0.99-21.728,2.269
			c-3.681,0.654-6.875,2.854-10.708,3.119c-1.02,0.071-2.151,1.235-3.184,0.387c-1.281-1.052-0.536-2.416-0.055-3.666
			c1.66-4.314,4.756-7.105,9.115-8.48c4.524-1.427,9.08-2.755,14.051-4.256c-6.474-6.254-13.696-9.161-21.891-10.336
			c-2.299-0.329-3.7,0.058-5.328,1.446c-5.248,4.476-11.197,7.614-17.949,9.271c-2.342,0.575-4.505,0.725-6.833,0.028
			c-2.319-0.694-3.848-1.382-3.109-4.441c0.73-3.02,2.704-2.586,4.539-2.128c3.765,0.94,7.219-0.519,10.709-1.225
			c2.373-0.479,4.24-2.359,5.417-5.206c-10.873-2.523-21.432-5.088-32.046-7.394c-6.52-1.417-7.131-2.107-4.239-7.836
			c1.166-2.309-0.005-3.863-0.919-5.531c-3.291-6.01-8.207-10.814-12.269-16.257c-5.141-6.887-6.827-13.799-4.393-19.233
			c2.535,0.32,2.295,2.976,4.123,4.801c2.62-5.48,7.068-8.821,12.521-10.912c2.614-1.002,4.487-1.774,4.589,2.643
			c0.091,3.956,0.824,8.094-0.583,11.688c-1.549,3.959-4.874,6.65-10.043,5.528c3.429,6.886,5.097,7.459,11.476,5.69
			c4.928-1.365,9.907-2.846,14.725-2.327c0.521-3.349-2.022-5.835-1.668-9.354c1.602-15.926,14.925-20.2,26.599-27.8
			c-2.637,13.929,4.287,28.854-9.791,39.104c9.379,4.928,17.675,10.6,25.507,16.897c1.315-0.703,0.942-1.894,0.806-2.734
			c-1.194-7.38,2.587-14.223,2.222-21.542c-0.133-2.659,1.914-3.75,4.507-2.812c9.607,3.479,19.104,18.698,18.003,28.758
			c-0.366,3.349-4.491,9.349-7.516,10.5c8.64,2.67,17,4.234,25.655,2.069c2.461-0.615,5.097-1.609,3.488-4.942
			c-2.94-6.088-2.314-13.283-6.778-19.059c-2.136-2.764-1.311-7.433-3.562-10.742c-1.466-2.154-1.385-5.63-5.319-5.707
			c-0.305-0.006-2.196-2.416-2.469-3.882c-1.32-7.099-7.814-9.513-12.32-13.506c-6.891-6.106-15.458-10.506-18.207-20.304
			c-1.4-4.99-6.189-5.763-10.011-7.504c-4.089-1.864-8.385-4.272-12.682-4.47c-8.394-0.388-16.904,0.816-23.057,7.553
			c-5.025,5.502-9.638,11.391-14.279,17.229c-6.299,7.925-14.492,11.604-25.677,12.008c3.64-3.896,1.995-5.106-1.263-6.376
			c-4.622-1.802-6.144-6.717-8.304-10.555c-1.6-2.842,1.2-5.809,3.83-7.172c7.544-3.909,14.851-0.297,16.365,8.73
			c0.15,0.897,1.572,3.599-1.726,3.291c-0.134-0.013-0.356,1.934,0.456,2.662c1.169,1.049,2.35,0.043,3.163-0.542
			c4.449-3.205,8.805-6.529,11.783-11.303c4.769-7.645,9.869-15.046,16.807-21.78c-3.816-1.117-7.173-2.184-10.574-3.081
			c-8.949-2.364-17.961-4.501-26.852-7.062c-2.87-0.827-3.409,1.277-4.71,2.531c-10.49,10.104-22.347,17.05-37.518,16.643
			c-3.386-0.091-6.514-1.167-9.724-1.965c-5.994-1.49-6.133-1.83-3.307-6.453c0.704-1.151,1.4-0.256,2.098-0.33
			c6.525-0.693,12.929,1.014,19.591,0.319c9.241-0.962,16.249-5.122,22.599-11.259c1.788-1.728,2.433-3.452-0.31-4.621
			c-10.326-4.403-18.992-11.213-27.649-18.967c0,1.879,0.002,3.313,0,4.748c-0.012,8.266-4.05,12.447-12.536,13.515
			c-5.191,0.652-9.789-1.405-14.56-2.618c-2.203-0.56-2.408-7.087-0.312-8.5c0.919-0.619,1.974-0.777,2.675-1.949
			c5.613-9.391,9.969-11.149,20.292-8.463c0.79,0.206,1.635,0.2,3.452,0.404c-5.047-3.048-6.195-8.109-9.392-11.672
			c-1.417-1.579-2.021-3.441-2.224-5.399c-0.19-1.84-1.225-4.142,1.115-5.337c2.768-1.413,2.633,2.116,4.298,2.845
			c0.748-1.463,0.367-2.736-0.108-4.207c-0.53-1.643-0.436-3.486-0.613-5.243c2.413,0.599,5.053-1.966,7.104-0.08
			c1.946,1.788,4.762,3.405,6.436,4.124c7.792,3.344,3.126,9.932,5.364,14.603c-1.791-0.283-2.241-2.415-4.87-1.714
			c2.674,0.627,0.71,3.956,3.689,4.168c0.961,0.068,0.852,1.31,0.423,1.403c-1.958,0.425-2.344,3.071-4.855,2.896
			c-4.073-0.284-6.313-2.831-8.618-5.698c-0.013,3.666,2.404,6.235,5.374,6.367c3.267,0.146,5.119,1.768,7.293,3.451
			c9.967,7.717,20.486,14.381,33.22,17.343c-2.653-8.514-1.451-16.763,0.683-25.023c0.651-2.521,2.369-1.687,3.442-1.203
			c5.453,2.455,9.638,6.532,13.24,11.206c1.168,1.516,2.051,3.258,3.009,4.929c1.584,2.763,3.026,5.236,0.146,8.444
			c-2.447,2.726-0.334,5.7,3.08,6.826c6.985,2.304,14.288,2.791,21.352,4.517c3.207,0.783,6.743-0.602,9.778,2.019
			c-0.962-3.263-2.404-5.394-5.452-6.298c-3.422-1.017-4.861-4.388-6.294-7.058c-1.701-3.168,1.319-6.12,5.211-5.862
			c2.729,0.181,5.363-0.369,6.866,3.231c1.569,3.758,4.257,1.176,6.477,0.164c2.724-1.242,1.764-2.797,0.634-4.709
			c-3.979-6.73-7.819-13.812-15.763-16.358c-3.942-1.264-1.877-4.491-3.453-6.542c-3.125-4.066-4.986-9.409-8.021-13.18
			c-2.718-3.377-1.123-6.618-3.666-10.457c0,3.772,0.647,6.809-0.133,9.418c-1.681,5.62-6.686,7.884-11.85,8.998
			c-4.336,0.936-8.889,0.99-13.357,1.163c-6.983,0.271-9.702-3.513-6.782-9.835c2.785-6.03,6.833-11.339,10.785-16.673
			c1.751-2.363,3.972-3.354,6.839-3.149c5.223,0.374,10.577-0.984,15.664,1.188c0.494-2.167,3.155,2.737,3.244-1.008
			c0.025-1.027-0.212-2.779,1.551-2.476c1.4,0.241,2.065,1.859,1.949,3.124c-0.49,5.317,2.883,9.759,3.169,14.869
			c0.122,2.184,1.056,3.452,3.434,3.196c0.07-4.043-2.511-7.994-0.222-12.093c0.571-1.021,0.891-2.57,2.287-2.062
			c6.164,2.247,6.276-3.142,7.256-6.21c2.367-7.416,4.272-14.971,9.153-21.253c0.914-1.176,2.101-3.515,3.788-2.271
			c1.745,1.286,1.754,4.146,0.534,5.805c-4.687,6.37-5.82,13.836-7.329,21.249c-0.652,3.2-1.273,6.542-2.731,9.4
			c-1.096,2.15-0.736,3.878-0.103,5.666c2.137,6.03,5.055,11.784,6.192,18.167c0.433,2.43,4.383,2.986,3.48,6.473
			c-0.14,0.54,2.275,0.149,2.371-1.101c0.906-11.851,12.498-11.079,19.169-16.025c1.209-0.896,4.76,0.287,4.901,3.335
			c0.203,4.401,0.052,8.82-0.461,13.244c-2.359-2.111-0.621-5.009-2.704-7.242c0,2.719-0.07,5.438,0.014,8.155
			c0.218,7.092-1.715,9.623-8.635,11.236c-1.988,0.464-3.957,0.348-6.011,0.034c3.099,3.541,3.647,8.309,3.978,12.305
			c0.413,4.979,1.622,9.938,1.455,15.103c-0.092,2.831,2.043,6.579,6.011,8.513c7.771,3.787,14.574,9.196,20.787,15.242
			c1.761,1.715,3.589-0.61,5.261,0.416c0.644-1.776,2.02-3.198,2.168-5.241c0.498-6.884,1.526-13.803,2.343-20.557
			c0.575-4.752-0.598-8.371-1.238-12.485c-1.65-1.569-3.299-3.138-4.948-4.706c-0.216-3.608-2.145-6.547-3.954-9.449
			c-5.569-8.932-9.445-18.344-10.032-29.045c-0.318-5.794-2.788-11.51-0.143-17.542c-1.132,4.519-2.971,7.622-7.842,8.975
			c-4.915,1.364-8.867-0.069-12.75-2.379c-5.033-2.993-8.762-7.46-12.16-12.114c-2.027-2.777-1.465-6.28-0.348-9.098
			c0.824-2.076,3.824-1.013,5.702-0.969c4.385,0.102,8.674-0.776,13.094-0.561c7.416,0.363,12.438,4.074,13.718,11.269
			c1.459,0.372,1.584-0.74,1.868-1.681c1.656-5.477,3.336-10.946,4.958-16.433c0.486-1.645,0.83-3.787-1.49-3.904
			c-5.367-0.271-9.973-3.293-15.343-3.708c-2.781-0.215-5.587-0.574-8.401-0.659c-2.179-0.065-5.012-0.064-5.188-2.573
			c-0.163-2.325,1.234-4.685,4.4-5.033c7.467-0.821,14.797-0.177,22.019,1.763c2.991,0.803,5.667,2.883,9.044,2.062
			c2.027-0.493,1.41,1.35,1.808,2.225c0.788,1.733,2.316,2.521,3.963,2.572c1.637,0.052,2.257-1.555,3.18-2.768
			c3.176-4.176,0.688-9.756,3.854-14.137c2.665,1.224,2.393,3.871,2.049,5.787c-0.848,4.718,0.681,10.144-4.032,13.886
			c-1.091,0.867-0.468,2.896,0.27,4.236c0.748,1.355,2.428,1.9,3.442,1.126c3.724-2.843,4.247,0.436,4.978,2.568
			c1.74,5.075,2.951,10.341,6.927,14.354c1.821,1.838,5.776,1.618,5.422,5.563c-0.021-3.92,6.714,2.758,5.459-3.544
			c-0.434-2.177,2.95,0.258,3.531-2.11c1.082-4.414,2.75-8.681,3.969-13.066c0.368-1.326-0.265-2.666-1.877-3.039
			c-0.935-0.216-1.878-0.952-0.923-1.515c2.85-1.678,0.844-3.582,0.586-5.399c-1.145-8.104-3.872-15.829-5.72-23.764
			c-0.811-3.482-2.247-6.294-6.143-6.832c-0.951-0.132-1.728-0.162-1.644-1.244c0.496-6.403-5.005-7.907-8.924-9.89
			c-6.218-3.146-12.23-6.296-16.963-11.549c-1.755-1.947-4.395-3.004-6.771-2.493c-4.851,1.045-7.699-2.065-11.099-4.277
			c-1.43-0.931-1.611-2.266-1.129-3.459c0.807-1.997,0.738-3.366-1.326-4.483c-0.963-0.521-1.142-1.798-0.542-2.658
			c0.619-0.89,1.562-1.897,2.528-2.112c1.236-0.275,2.04,0.982,2.443,2.072c0.338,0.915,0.282,1.969,0.498,2.939
			c0.465,2.092,2.378,2.188,3.921,2.524c1.448,0.316,1.885-0.874,2.221-2.104c1.253-4.586,3.141-3.708,5.673-0.8
			c4.61,5.295,4.643,5.146,10.185,0.929c2.339-1.78,5.609-1.839,8.055-1.475c5.439,0.81,5.797,1.271,10.692-0.957
			c-3.948,5.409,0.739,7.536,2.963,10.772c2.092-1.354,1.356-3.699,1.377-5.689c0.027-2.649-0.354-5.303-0.346-7.953
			c0.005-1.698,0.619-3.742,2.184-4.174c1.782-0.492,1.851,1.886,2.738,2.958c6.751,8.166,1.242,16.348-0.001,24.501
			c-0.233,1.532-0.541,1.485,1.581,6.13c0.693-4.596,2.426-7.982,5.872-11.147c1.104,4.809,0.947,8.989,0.182,13.198
			c-0.705,3.877-0.426,7.308,4.035,8.879c0.592,0.208,1.115,0.745,1.551,1.235c3.024,3.397,6.238,4.125,10.089,1.177
			c3.139-2.402,4.697-1.551,4.723,2.53c0.015,2.512,0.368,5.039-0.841,7.331c-3.13,5.928-1.181,11.892,1.481,16.799
			c1.678,3.091,2.146,5.795,1.599,8.582c-0.406,2.07,0.825,3.828,1.421,3.944c1.51,0.293,2.692-0.743,3.831-2.339
			c7.132-9.99,7.432-21.698,8.413-33.117c0.396-4.594,2.161-8.076,5.376-10.514c3.728-2.826,5.17-5.398,1.837-9.163
			c0.933-0.85,1.686-0.79,2.531-0.536c2.57,0.773,2.233,5.388,6.015,4.527c0.481,2.543,0.105,5.505-1.288,7.091
			c-3.922,4.463-4.455,10.644-8.405,15.006c-3.607,3.984-1.723,8.714,0.399,11.979c2.684,4.13,0.516,6.226-1.316,9.123
			c-3.924,6.203-6.929,13.019-12.566,18.062c-0.618,0.553-1.08,2.034-0.053,4.174c2.3-11.469,11.541-7.132,18.056-8.837
			c0.573-0.15,4.05,1.093,3.379,2.825c-1.563,4.035-2.652,8.593-5.98,11.574c-5.1,4.57-10.396,3.778-14.818-1.605
			c-0.584-0.71-1.417-1.215-2.633-2.232c-0.819,7.143-1.793,13.632-2.205,20.157c-0.179,2.83-1.207,5.527-2.551,7.381
			c-4.504,6.208-5.204,13.989-9.264,20.336c-2.291,3.583-2.357,9.06-4.336,11.701c-3.189,4.259-2.722,8.889-4.625,13.023
			c-1,2.174-1.222,4.285-1.031,6.732c0.22,2.84-0.301,5.485-3.395,7.573c-3.839,2.592-4.387,8.553-9.372,10.42
			c2.414,4.316-4.544,1.104-3.975,5.111c0.37,2.604-2.841,5.519-3.423,8.495c-1.257,6.429-5.847,11.93-5.103,18.869
			c0.172,1.606-0.52,3.581,1.29,4.525c1.917,1,2.363-1.679,3.234-1.88c9.913-2.287,8.958-11.089,10.632-17.924
			c2.463-10.053,5.128-19.67,15.21-24.937c1.025-0.536,2.04-1.154,3.136-1.476c0.914-0.268,2.131-0.442,2.688,0.609
			c0.447,0.843,0.568,1.913-0.094,2.818c-0.293,0.399-0.591,0.937-1.004,1.085c-13.374,4.807-12.954,17.095-15.017,27.917
			c-1.835,9.626-4.639,18.472-13.856,23.804c-1.963,1.137-2.762,3.933-1.903,5.718c1.694,3.522,2.237,7.619,5.242,11.086
			c5.002-7.771,13.139-9.647,21.068-11.781c5.183-1.396,6.543-0.392,6.288,4.815c-0.273,5.596-3.265,10.341-6.093,14.911
			c-3.797,6.137-10.289,6.416-17.025,6.471c1.988,7.328,5.511,13.837,9.107,20.318c0.34,0.613,0.697,1.273,1.439,1.084
			c1.192-0.305,1.65-1.201,2.131-2.404c2.621-6.582,3.776-13.585,6.823-20.121c3.978-8.532,9.271-16.062,14.999-23.306
			c2.981-3.771,3.851-7.131,1.742-11.337c-4.4,5.854-10.776,5.621-17.117,5.841c-5.294,0.184-8.68-2.79-11.771-6.367
			c-2.807-3.245-2.372-7.291-0.338-10.215c2.171-3.122,6.089-4.481,10.184-4.082c4.666,0.455,8.262,3.343,11.093,6.472
			c1.807,1.996,4.015,3.147,6.273,5.134c-4.846-16.854,0.383-31.304,10.425-45.25c-5.171,1.319-8.215,5.443-13.408,4.573
			c-5.735-0.96-8.185-5.162-6.471-10.699c2.229-7.2,6.831-10.828,13.786-13.176c8.796-2.97,8.632-3.456,9.179,5.719
			c0.115,1.932-0.304,2.646-2.615,6.646c-0.703,1.218-0.549,2.86,0.41,4.521c5.929-5.701,5.507-13.565,7.425-20.483
			c0.694-2.503-2.385-4.287-2.98-6.657c-0.975-3.873-3.863-2.007-5.932-2.133c-5.592-0.339-11.455-6.368-11.857-12.601
			c-0.129-1.992-0.069-4-0.031-5.998c0.098-5.192,1.808-6.085,6.924-4.405c4.896,1.607,8.96,4.825,13.491,7.053
			c4.085,2.008,4.298,8.542,6.157,13.095c1.062,2.601,1.267,5.468,1.144,8.338c-0.18,4.16,0.724,8.182,1.374,12.282
			c1.342,8.463-0.109,16.623-5.726,23.71c-3.561,4.493-3.461,10.023-0.271,14.658c1.569,2.28,3.351,3.506,5.321,0.368
			c3.876-6.174,9.61-9.201,16.653-10.503c3.434-0.635,6.394-2.409,7.811-6.155c2.135-5.644,6.366-9.656,11.265-12.924
			c2.935-1.957,5.464-4.266,7.78-6.898c2.71-3.08,3.916-5.285-0.461-8.602c-6.773-5.132-8.177-15.147-4.063-22.735
			c1.375-2.536,2.33-4.25,0.248-7.408c-2.563-3.888-4.326-8.635-3.652-13.714c0.172-1.298-0.033-2.715,1.691-3.412
			c1.787,2.12,1.636,4.906,2.54,7.301c0.856,2.268,1.097,4.911,3.652,6.184c2.759-4.116-1.812-11.566,6.296-13.191
			c0.812,2.267,0.766,4.491-0.253,6.692c-0.992,2.145-1.693,4.324-0.902,6.852c3.622-2.469,4.299-5.964,4.016-9.93
			c-0.117-1.638-0.171-3.961,1.877-4.063c2.516-0.125,1.557,2.381,1.746,3.834c0.547,4.212-0.954,7.813-3.46,11.117
			c-2.17,2.861-2.315,5.095,1.44,7.114c5.171,2.78,10.274,5.843,13.328,11.525c3.839-15.814,5.515-31.457,5.005-47.342
			c-0.704,4.2,0.736,8.574-3.885,12.086c-5.518,4.194-16.67-3.679-19.208-9.384c-3.942-8.862-0.02-17.129,0.374-25.627
			c0.134-2.886,3.354-3.877,5.31-2.523c2.614,1.81,6.317,2.465,7.633,5.984c0.104,0.275,0.46,0.469,0.722,0.669
			c8.278,6.352,11.776,15.154,12.261,25.181c0.294,6.093,0.115,12.277-0.584,18.336c-1.457,12.643-2.763,25.285-6.598,37.59
			c-3.993,12.811-12.619,22.036-21.805,30.968c-9.611,9.347-20.79,16.786-32.146,25.485c3.682,0.246,5.565-2.21,7.994-2.471
			c1.738-0.187,3.966-2.358,4.472,2.764c0.377,3.831-0.905,6.424-1.757,9.315c-1.883,6.39-7.209,8.336-13.661,8.405
			c3.59,2.769,10.255,2.035,14.526-1.933c3.499-3.25,7.191-5.713,11.86-6.862c3.258-0.803,5.317-3.605,7.064-6.079
			c3.988-5.647,8.918-10.579,11.921-17.034c1.866-4.012,5.684-7.044,9.63-9.194c6.756-3.681,9.111-10.142,11.419-16.688
			c1.97-5.588,2.581-11.646,5.898-16.772c1.271-1.962-0.63-2.241-1.699-2.675c-5.414-2.195-7.202-6.293-6.772-11.877
			c0.268-3.48-0.052-7.002,0.119-10.494c0.18-3.658,2.294-4.762,5.393-3.046c7.235,4.005,12.712,9.258,11.058,19.549
			c7.73-6.623,14.117-12.643,13.832-22.645c-6.943,3.257-12.199-0.231-12.355-8.307c-0.038-1.978-0.001-3.848-1.33-5.669
			c-1.089-1.491-0.973-3.403,0.495-5.024c1.344-1.483,2.734-2.124,4.814-1.747c7.916,1.433,10.223,4.067,11.058,13.093
			c0.636-1.247-0.701-2.973,0.67-3.737c3.342-1.863,2.526-4.979,2.101-7.557c-1.274-7.721-1.951-15.355,0.17-23.035
			c0.35-1.265,0.134-3.151,1.797-3.03c1.252,0.091,1.663,1.813,1.885,3.198c0.463,2.896-0.825,5.57-0.93,8.385
			c-0.037,0.999-0.112,2.012,0.003,2.997c0.325,2.795-0.145,6.226,1.316,8.224c2.525,3.455,3.523-2.66,6.273-1.889
			c1.511,0.423,3.005-1.504,4.85-0.638c-2.41-1.273-5.52,0.467-7.528-2.153c-1.787-2.332-4.468-4.442-3.335-7.752
			c1.405-4.108,4.997-6.295,8.948-7.035c3.542-0.664,7.299-0.297,10.956-0.2c2.339,0.062,2.958,1.929,1.996,3.504
			c-1.973,3.228-1.446,7.522-4.819,10.264c1.148,0.867,2.925-0.536,3.396,0.896c0.415,1.264-0.857,2.085-1.733,2.738
			c-2.541,1.896-5.31,3.519-8.441,4.092c-5.813,1.063-8.54,4.845-10.182,10.157c-2.202,7.125-4.771,14.105-5.999,21.534
			c-0.566,3.426-3.117,6.18-5.662,8.631c-5.755,5.544-11.323,11.249-15.846,17.885c-3.057,4.482-5.142,9.408-5.119,14.831
			c0.018,4.303-1.177,7.651-4.281,10.681c-2.421,2.362-4.452,5.221-5.291,9.663c7-3.079,14.211-3.903,19.436-8.54
			c3.364-2.986,5.944-7.125,8.082-11.167c4.239-8.015,8.622-16.037,9.896-25.272c0.197-1.433,0.592-3.983,2.789-3.32
			c2.027,0.612,0.908,2.666,0.585,4.263c-1.9,9.367-4.7,18.454-8.477,27.222c-1.931,4.482-5.508,7.833-8.564,11.524
			c-0.953,1.15-2.123,2.119-3.13,3.229c-0.811,0.894-1.583,2.004-0.409,3.042c1.574,1.391,2.603-0.141,3.128-1.179
			c2.211-4.365,5.324-7.953,8.656-11.492c3.775-4.009,9.036-4.716,13.589-6.975c0.761-0.377,1.785-0.242,2.215,0.556
			c0.483,0.897-0.269,1.486-0.985,1.982c-1.639,1.134-3.134,2.558-4.906,3.406c-7.547,3.611-11.606,10.139-14.826,17.375
			c-1.58,3.552-0.317,5.225,4.173,5.501c1.722,0.105,3.832-0.11,3.538,2.208c-0.245,1.929-2.422,1.076-3.803,1.244
			c-0.321,0.04-0.664-0.042-0.99-0.104c-7.005-1.339-7.188-1.405-9.611,5.347c-6.367,17.738-7.564,36.121-6.714,55.244
			c4.39-3.184,8.357-6.062,12.306-8.925c-6.293-4.22-5.042-11.035-3.869-16.452c2.531-11.7,13.573-15.091,22.738-20.735
			c-1.748-1.682-4.628-2.386-6.36-4.61c-3.776-4.848-0.867-12.276,5.321-13.306c5.795-0.964,16.496,4.977,19.017,10.357
			c1.569,3.35-1.157,4.038-3.002,4.797c-2.582,1.061-5.386,1.678-8.151,2.169c-2.492,0.443-3.325,1.752-3.213,4.127
			c0.11,2.328-0.247,4.702,0.068,6.991c0.824,5.973-1.674,11.353-3.033,16.867c-0.668,2.707,0.11,2.629,1.864,2.31
			c7.007-1.277,13.99-2.676,21.152-2.764c2.309-0.027,3.241-1.408,3.229-3.565c-0.054-9.111,0.84-18.268-2.778-27.089
			c-1.199-2.925-3.713-7.683,0.301-9.127c3.46-1.245,4.744,4.201,5.741,6.852c2.875,7.637,3.476,15.812,3.475,23.98
			c0,7.69,1.127,8.544,8.328,5.423c2.393-1.037,5.318-0.859,7.596-3.386c-3.698-0.765-5.878-3.216-6.391-6.455
			c-0.478-3.024-0.914-6.275,0.596-9.293c2.43-4.854,4.978-9.636,9.694-12.71c1.609-1.049,3.524-3.007,5.292-1.792
			c1.57,1.078,2.951,3.05,2.885,5.497c-0.112,4.118-0.03,8.242-0.03,12.336c2.135,0.249,2.593-2.079,4.558-1.724
			c0.013,3.885-3.057,6.146-5.168,8.587c-6.355,7.352-13.6,13.707-23.214,16.567c-2.852,0.849-3.54,2.659-2.931,5.312
			c0.702,3.059,1.01,6.276,2.186,9.139c1.119,2.722,3.137,4.404,5.987,1.192c1.042-1.174,2.3-3.654,4.371-1.713
			c1.746,1.636-0.458,3.111-1.254,4.232c-12.306,17.348-22.389,36.081-33.829,53.963c-6.787,10.606-14.825,20.401-20.057,32.015
			c-2.705,6.007-4.124,12.216-4.591,18.707c-0.095,1.309-0.281,2.887,1.019,3.67c1.406,0.848,2.462-0.546,3.448-1.233
			c7.889-5.498,15.116-11.992,23.726-16.382c4.416-2.252,9.05-4.935,14.271-1.235c1.969,1.395,3.616-0.697,6.041-1.863
			c-2.739-1.415-4.934-2.73-7.269-3.715c-4.023-1.695-5.521-5.106-5.861-8.953c-0.365-4.134-0.056-8.325-0.092-12.491
			c-0.021-2.503,0.623-3.471,3.55-2.899c7.581,1.482,16.044,9.695,17.541,18.112c3.379-7.089,10.341-11.7,10.742-19.694
			c0.394-7.854,3.89-14.691,6.11-21.95c0.187-0.61,0.392-1.272,2.305-1.309c0.62,8.294-6.03,15.51-4.008,24.261
			c5.865-4.539,12.775-0.551,18.923-3.078c-1.782,2.38-1.817,2.646-3.007,2.49c-10.825-1.417-16.673,5.1-21.397,13.354
			c-2.046,3.574-3.883,7.269-6.297,11.819c8.409-2.278,15.898-2.127,23.391-1.396c0.098,2.346-1.337,2.219-2.39,2.232
			c-18.405,0.239-31.636,9.385-41.856,23.978c-6.075,8.673-12.427,17.152-18.914,26.078c4.462,0.312,8.18-1.169,11.567-3.424
			c9.533-6.348,16.914-14.637,22.149-24.862c0.982-1.92,2.27-5.667,4.241-4.468c2.592,1.577-0.881,3.891-1.678,5.84
			c-2.184,5.339-5.362,10.08-8.716,14.812c-3.943,5.564-8.443,9.99-14.528,13.138c-7.248,3.75-5.35,4.968-1.189,8.576
			c4.025,3.489,6.981,8.195,10.527,12.261c1.875,2.15,4.266,3.654,7.072,4.402c1.895,0.505,3.785,1.024,5.773,1.563
			c-1.006,2.793-2.868,2.099-4.614,1.734c-8.589-1.789-15.338-6.85-20.271-13.583c-4.794-6.543-10.829-8.017-18.037-7.954
			c-0.735,2.276,3.085,2.136,1.898,4.036c-1.015,1.623-3.304,1.353-4.592,0.835c-8.34-3.354-15.59,3.17-23.664,2.43
			c-1.812-0.166-3.883,1.687-5.724,2.794c-9.082,5.464-17.965,10.91-25.817,18.439c-9.996,9.586-22.218,16.644-32.49,26.222
			c-5.154,4.805-6.185,10.188-6.702,15.75c-1.89,20.309-5.034,40.408-8.372,60.506c-2.237,13.474-1.479,27.077-0.603,40.639
			c0.225,3.469,0.312,6.87-1.588,9.979c-12,0-24,0-36,0c-3.128-5.486-0.396-11.126,0.154-16.476
			c1.576-15.29,4.481-30.438,6.361-45.704c2.229-18.092,4.821-36.168,4.23-54.507c-0.123-3.815-0.727-6.312-4.518-8.243
			c-6.187-3.151-12.099-6.913-17.854-10.818c-3.127-2.122-4.503-1.146-6.219,1.595c-5.883,9.396-13.299,16.968-24.532,19.834
			c-1.651,0.421-3.171,0.928-5.146-0.007c2.069-3.442,5.352-5.19,8.696-6.675c7.234-3.213,12.529-8.534,16.891-14.934
			c3.132-4.595,2.428-6.407-3.315-6.564c-8.45-0.233-16.967-0.912-25.354,0.99c-4.034,0.915-8.048,1.941-12.115,2.681
			c-4.95,0.898-8.361,3.588-11.851,7.257c-3.56,3.743-8.24,6.62-14.494,5.31c-4.603-0.966-9.465-0.989-14.179,1.146
			c-4.196,1.9-8.727,3.156-13.388,3.638c-0.291,0.277-0.583,0.556-0.874,0.834c-6.012,1.352-11.818,0.8-17.374-1.926
			c-1.601-0.786-3.689-1.306-3.152-3.781c0.505-2.334,2.216-2.882,4.47-3.051c5.703-0.429,11.115-1.621,15.266-6.186
			c2.897-3.187,7.118-2.211,10.407-1.541c5.991,1.22,11.088-0.062,16.192-2.857c1.676-0.919,3.636-1.32,6.091-2.176
			c-5.415-4.189-8.772-9.201-11.302-14.783c-0.932-2.058-2.372-3.03-4.614-3.14c-7.074-0.344-12.263-4.435-17.4-8.728
			c-2.148-1.796-4.536-3.382-7.011-4.693c-7.386-3.915-11.117-2.508-13.79,5.152c-0.663,1.901,1.054,3.315,1.843,4.849
			c2.389,4.639,7.142,8.288,6.18,14.309c-0.58,3.629-0.469,8.194-6.539,6.501c-1.292-0.36-1.937,1.121-2.977,1.572
			c-1.13,0.49-2.366,0.635-3.299-0.185c-1.116-0.982-0.802-2.45-0.715-3.769c0.123-1.865,1.381-1.426,2.537-1.229
			c2.57,0.44,3.218-1.187,3.29-3.229c0.076-2.145,0.377-4.356-1.028-6.31c-1.743,1.634-0.956,4.327-2.671,6.129
			c-1.505,1.58-3.632,0.009-5.154,1.586c-0.366,0.379-1.07-1.738-0.994-2.856c0.106-1.565,0.465-3.3,2.635-2.374
			c1.803,0.771,2.607-0.088,2.953-1.469c0.736-2.939-0.23-5.71-2.031-7.897c-1.262-1.532-1.751,0.515-2.438,1.256
			c-0.643,0.694-1.651,0.91-2.279,0.5c-3.253-2.124-7.184-1.154-10.587-2.479c-4.742-1.845-9.458-2.26-14.427-0.57
			c-3.11,1.057-5.255-0.763-5.352-3.875c-0.05-1.584-0.438-2.228-1.537-3.181c-1.678-1.456-0.085-3.098,0.531-4.458
			c0.319-0.705,1.62-1.354,2.475-1.353c2.24,0.005,0.979,1.994,1.43,3.046c0.354,0.827-0.313,2.199,1.167,2.403
			c0.796,0.109,1.629-0.052,2.446-0.09c-0.511-0.303-1.15-0.507-1.484-0.944c-0.192-0.252-0.054-1.131,0.209-1.301
			c4.954-3.183,4.451-8.91,6.307-13.51c2.358-5.846,5.556-7.879,11.222-7.498c2.215,0.148,2.887,0.526,2.748,2.777
			c-0.349,5.675,4.099,8.229,7.761,11.192c0.978,0.791,2.269,1.558,3.642,0.521c8.413-6.352,15.788-1.323,23.592,1.773
			c5.228,2.074,8.685,6.304,13.282,9.023c4.343,2.57,6.323,1.685,7.893-2.83c0.513-1.474,0.986-3.669,3.06-3.364
			c1.997,0.292,1.096,2.418,1.391,3.765c0.035,0.16,0.006,0.334,0.03,0.498c1.028,7.28,13.431,21.266,20.142,22.717
			c2.065,0.446,2.065,0.446,5.135-1.128c-9.807-5.966-15.725-15.57-22.847-23.944c-8.274-9.729-18.073-15.942-30.943-16.873
			c-1.525-0.11-3.013-0.159-3.941-1.508c5.494-5.339,12.145-4.547,18.51-2.771c6.825,1.903,12.491,6.052,17.032,11.591
			c0.975,0.934,1.949,1.865,2.922,2.798c5.193,5.162,10.411,10.301,15.57,15.496c3.841,3.867,8.695,6.053,13.531,8.243
			c2.442,1.106,4.5,0.204,4.878-2.43c0.255-1.779,2.952-4.3-1.682-5.462c-5.183-1.3-8.333-5.649-10.458-10.52
			c-0.765-1.752-1.016-3.683,0.019-5.271c1.131-1.736,2.956-1.288,4.889-1.148c4.62,0.334,8.759,1.588,12.301,4.555
			c1.648,1.38,3.486,2.942,2.825,5.403c-1.222,4.552,1.898,6.247,4.986,7.823c7.136,3.644,14.702,5.858,22.728,6.517
			c2.96,0.243,5.988,0.554,8.801,1.428c3.269,1.016,3.588-0.229,2.771-2.78c-0.931-2.905-1.724-5.744,0.785-8.83
			c2.839,4.126,3.301,8.939,5.176,13.152c0.294,0.254,0.588,0.509,0.882,0.763c6.452,3.706,13.685,5.435,20.58,8.528
			c-0.007-20.618-6.974-39.295-12.707-58.224c-1.676-5.535-9.42-10.352-16.399-10.287c-6.297,0.058-12.586,0.782-18.883,0.864
			c-4.51,0.06-8.963-0.736-12.539-3.884c-0.922-0.811-2.505-1.697-1.743-3.179c0.602-1.17,2.1-1.627,3.508-1.489
			c2.632,0.259,5.247,0.747,7.883,0.895c8.656,0.484,17.22-1.633,25.894-0.991c2.879,0.213,3.296-0.932,1.554-3.131
			c-4.658-5.88-10.475-10.505-16.295-15.131c-1.434-1.14-2.381,0.144-3.571,0.592c-8.048,3.031-15.772,6.859-24.315,8.661
			c-5.495,1.159-10.544,0.443-15.586-1.335c-4.532-1.598-8.968-1.499-12.925,1.046c-7.779,5.002-16.548,6.543-25.388,7.938
			c-3.594,0.566-7.25,0.736-10.859,1.221c-4.869,0.652-8.585,2.629-12.087,6.66c-8.068,9.286-18.616,14.725-31.039,16.22
			c-4.285,0.515-8.539,1.588-12.847,0.62c-1.231-0.276-5.42,0.357-1.614-3.009c0.285-0.253-0.104-2.04-0.524-2.199
			c-4.399-1.661-4.911-6.824-8.521-9.214c-2.753-1.822-2.616-4.84-2.151-7.678c0.525-3.208,3.396-2.033,5.282-2.44
			c6.646-1.439,12.885-1.611,18.763,3.254c3.358,2.779,4.985,5.459,4.495,9.638c-0.348,2.967,0.617,3.682,3.729,2.819
			c5.196-1.439,9.971-2.685,9.678-9.621c-0.083-1.968,1.158-3.779,2.881-5.022c0.623-0.621,1.244-1.24,1.865-1.86
			c3.241-1.962,6.301-4.183,9.97-5.447c5.048-1.738,6.32-6.97,9.096-10.759c1.136-1.551-0.942-2.206-2.052-2.7
			c-8.884-3.952-18.271-5.649-27.919-6.447c-11.207-0.927-22.445-1.815-33.545-3.527c-5.783-0.892-9.858,0.106-13.463,4.768
			c-5.722,7.399-12.852,13.112-22.926,17.276c2.428-4.088,3.932-7.038,6.793-9.001c4.576-3.138,7.958-7.532,11.925-11.311
			c1.857-1.77,1.822-2.671-1.224-3.273c-21.465-4.246-40.883-12.9-57.445-27.462c-0.741-0.651-1.423-1.553-2.539-1.271
			c-1.092,0.276-0.735,1.334-0.829,2.106c-1.516,12.447-6.037,16.983-18.666,18.712c-7.73,1.058-8.856-0.018-8.006-7.647
			c1.196-10.746,9.286-18.907,20.277-20.24c-4.873-3.716-7.947-8.911-12.324-12.911c-2.385-2.18-1.5-5.087-0.458-7.432
			c2.366-5.324,6.136-9.704,10.628-13.377c2.558-2.092,5.144-0.326,6.229,1.569c4.683,8.183,2.954,15.897-4.595,22.587
			c16.128,15.775,34.413,27.82,56.613,33.242c1.644,0.401,3.533,1.186,4.722-0.09c1.584-1.701-0.679-3.003-1.386-4.265
			c-4.02-7.172-10.279-12.462-15.951-18.212c-6.433-6.521-11.505-13.739-12.682-23.038c-0.27-2.128-1.526-1.216-2.402-1.445
			c-11.466-3.006-14.547-9.223-11.14-20.543c1.879-6.243,2.835-12.728,7.279-17.877c0.289,0.279,0.578,0.559,0.867,0.838
			c8.523,5.745,13.447,13.396,13.022,24.037c-0.134,3.358-1.949,6.203-2.97,9.158c-0.847,2.453-0.374,3.452,0.411,5.535
			c5.564,14.753,20.167,21.248,29.552,32.964c-1.548-7.408,3.834-11.688,6.901-16.897c0.613-1.041,1.629-2.683,3.555-2.102
			c1.889,0.57,2.859,1.964,2.429,3.781c-0.661,2.791,1.971,4.346,2.119,6.876c0.439,7.533-2.753,12.87-10.224,16.831
			c10.036,3.379,19.37,5.923,29.412,6.595c-12.31-11.295-15.434-26.804-20.322-41.514c-1.666-5.012-4.069-9.815-7.046-14.232
			c-0.702-1.041-1.597-3.272-3.354-1.819c-1.45,1.198,0.601,1.665,1.077,2.512c0.72,1.28,0.852,4.372,0.23,4.682
			c-3.61,1.799-0.335,6.509-4.364,8.522c-3.469,1.733-6.854,3.932-10.345,5.806c-1.538,0.826-2.709,1.129-4.23-0.653
			c-1.369-1.604-1.689-2.48-0.402-4.153c1.556-2.021,0.758-4.51,0.797-6.787c0.141-8.147,2.129-10.825,10.001-12.908
			c1.119-0.296,2.633-0.222,2.806-1.541c0.18-1.373-1.359-1.695-2.38-2.164c-2.259-1.036-4.604-1.901-6.81-3.037
			c-2.152-1.107-4.686-1.66-6.417-4.025c1.89-1.103,3.52-2.354,6.945-1.741c-3.328-1.347-6.204-1.559-6.125-5.141
			c0.111-5.027-0.988-10.38,4.129-13.821c3.491-2.348,7.625-3.301,11.585-4.355c4.658-1.24,5.84,0.955,4.168,7.022
			c-1.318-0.329-0.416-1.738-1.392-2.584c1.544,7.933-1.824,13.665-7.528,18.505c6.154,3.343,11.742,7.4,16.961,12.901
			c-0.543-8.372,4.547-14.123,7.688-20.662c1.515-3.153,3.369-2.287,4.818-0.287c5.232,7.22,7.644,15.302,6.163,24.202
			c-1.045,6.281-6.458,9.2-12.666,6.939c3.859,9.415,6.503,19.094,12.031,28.342c-1.062-11.608,6.179-16.633,15.009-20.587
			c3.302-1.479,6.586-3.027,9.589-5.228c1.557-1.142,3.987-2.522,6.302-0.42c2.273,2.065,2.398,4.138,0.618,6.538
			c-1.074,1.449-0.578,3.214-0.775,4.844c-1.757,14.506-4.253,22.008-19.233,27.679c12.508,6.203,25.039,9.34,38.917,6.26
			c-1.106-2.949-4.201-4.813-4.423-8.337c-0.294-4.664,1.305-8.666,3.391-12.596c0.614-1.157,1.788-2.121,2.077-3.325
			c0.649-2.703,1.46-5.621,4.51-5.707c3.332-0.095,3.159,3.779,4.514,5.835c1.679,2.547,2.812,5.516,3.824,8.426
			c1.801,5.181-1.472,9.413-3.292,14.562c12.5-1.926,24.755-1.356,36.977-1.818C248.892,363.139,249.184,362.886,249.476,362.634z
			 M379.026,388.138c4.154,6.505,3.351,18.901-1.728,25.454c-3.042,3.924-6.349,7.603-10.105,10.945
			c-6.756,6.013-12.046,12.863-9.852,22.888c2.37,10.824,4.646,21.669,6.873,32.522c0.754,3.673,3.058,1.766,4.52,1.167
			c14.042-5.749,26.292-14.322,35.859-25.975c11.988-14.602,22.302-30.212,18.054-50.784c-2.558-12.384-7.426-23.462-18.242-30.876
			c-7.787-5.337-16.118-9.768-24.462-14.214c-13.417-7.15-24.994-16.346-30.046-31.623c-1.084-3.275-0.667-7.646-3.367-9.625
			c-2.938-2.153-6.621,0.75-10.007,1.248c-2.865,0.421-6.059-0.856-8.512,1.763c-4.2,4.482-9.154,8.284-12.37,13.649
			c-0.873,1.457-1.888,2.659-3.396,3.531c-3.819,2.209-4.468,5.109-2.371,9.026c8.988,16.782,18.781,33.139,26.616,50.531
			c4.679,10.386,9.49,20.712,14.461,31.544c5.528-6.561,11.582-12.118,17.986-17.315c6.305-5.114,10.058-11.412,8.769-19.945
			C377.524,390.85,377.361,389.377,379.026,388.138z M428.198,386.389c0.211-7.69-0.065-15.225-0.252-22.78
			c-0.44-17.767-3.188-35.36-3.259-53.118c-0.011-2.559-0.841-3.694-3.361-4.579c-6.146-2.157-11.002-6.063-13.893-12.118
			c-1.025-2.146-2.228-4.206-3.547-6.677c-1.729,6.034-7.8,11.825-12.969,12.109c-5.813,0.319-11.665,0.271-17.485,0.02
			c-4.776-0.206-6.27-3.462-3.646-7.566c1.568-2.453,3.309-4.816,5.157-7.066c6.498-7.905,13.754-14.024,25.146-9.417
			c-1.288-5.252-5.092-8.959-10.4-10.925c-3.836-1.421-5.173,1.993-7.562,3.46c-4.765,2.926-9.017,6.894-14.911,7.614
			c-5.902,0.722-10.97,2.936-13.698,8.561c-2.872,5.921-7.604,9.784-12.936,13.35c-6.304,4.215-10.851,10.247-15.305,16.513
			c3.018-3.678,6.27-3.646,10.146-1.662c3.222,1.649,6.591-0.137,9.707-0.871c2.695-0.635,0.972-3.815,1.746-5.713
			c0.178-0.436,0.333-0.879,0.503-1.328c5.492,6.371,5.492,13.722,6.543,20.894c0.951-4.223,3.962-6.473,6.98-8.562
			c2.499-1.73,5.122-4.416,8.411-3c3.613,1.555,1.529,5.288,2.022,8.043c0.649,3.626-0.479,6.909-3.059,9.31
			c-2.703,2.516-6.096,3.269-9.902,1.012c5.712,9.456,14.524,14.219,23.309,18.941c6.113,3.286,6.694,2.838,7.068-4.533
			c-4.157,0.898-7.344-1.045-9.136-4.367c-2.123-3.936-0.928-8.448-0.646-12.71c0.08-1.221,1.261-1.096,2.362-0.86
			c5.865,1.252,9.572,5.323,10.326,11.442c6.851-8.049,11.1-17.186,10.669-28.27c3.729,4.134,3.441,8.547,2.281,13.087
			c-1.832,7.174-5.901,13.343-8.97,19.961c-3.084,6.652-1.58,11.888,4.552,15.447c2.727,1.583,5.652,2.838,8.301,4.533
			C416.984,369.996,423.46,377.306,428.198,386.389z M438.353,405.308c4.186-2.164,4.784-6.221,4.946-9.559
			c0.388-7.997,4.869-13.38,9.759-18.937c10.662-12.116,19.787-25.342,27.48-39.555c1.564-2.89,1.672-4.835-1.892-6.019
			c-3.734-1.24-5.685-4.448-7.683-7.521c-2.348-3.609-4.572-7.301-6.968-10.878c-6.569-9.811-14.126-10.446-21.896-1.89
			c-5.935,6.536-8.677,13.406-7.295,22.964c1.72,11.903,3.693,23.926,3.572,36.087C438.262,381.592,438.353,393.185,438.353,405.308
			z M264.552,119.829c-3.266-3.719-5.527-6.451-9.849-5.45c-1.405,0.325-2.917,2.58-4.397,0.467
			c-1.368-1.953-0.255-4.489,0.923-5.512c4.345-3.77,1.362-6.399-0.984-9.067c-2.079-2.364-4.263-2.525-5.36,0.948
			c-1.094,3.467-1.935,7.016-2.83,10.542c-1.984,7.818-2.99,15.939-1.127,23.677c3.242,13.466,9.923,25.486,18.172,36.623
			c1.864,2.517,3.416,1.9,3.985-0.472c0.683-2.847,2.295-5.21,3.395-7.799c-1.849-0.162-3.471-0.223-5.068-0.46
			c-5.23-0.775-7.021-3.346-6.751-9.563c0.195-4.507,2.776-6.882,7.748-7.094c1.164-0.05,2.332-0.019,3.498-0.021
			c6.966-0.013,9.752-2.371,10.614-9.197c0.166-1.312-0.195-4.185-1.49-3.13c-3.123,2.542-3.917-0.535-4.942-1.604
			c-2.35-2.452-4.764-4.52-8.084-5.486c-1.954-0.568-4.217-1.627-3.557-3.972C259.053,121.104,260.027,118.217,264.552,119.829z
			 M423.22,237.837c2.09,1.624,6.397,2.015,3.627,4.962c-1.6,1.701-5.308,2.746-8.396,2.239c-10.974-1.8-18.538,3.532-24.871,11.617
			c-1.644,2.099-1.086,3.624,1.091,4.716c2.4,1.204,4.233,2.88,6.097,4.893c5.345,5.777,7.213,13.036,9.233,20.155
			c1.787,6.295,6.668,8.272,11.841,10.237c1.822,0.692,2.975,0.143,2.778-1.992c-0.371-4.028,0.738-7.917,1.027-11.882
			c1.048-14.361,4.62-28.093,10.84-41.053c1.315-2.74,0.604-4.009-1.5-5.248C430.941,234.099,427.328,236.001,423.22,237.837z
			 M271.504,204.632c2.487-0.962,4.218-2.158,4.565-4.196c0.731-4.284,0.919-8.26,5.648-10.955
			c4.933-2.812,5.125-8.632,5.097-13.753c-0.02-3.649,1.675-6.416,3.044-9.484c2.747-6.156,7.484-11.888,2.096-19.366
			c-1.753-2.432-3.907-3.058-5.887-3.683c-1.77-0.559-3.288,2.109-3.88,3.782c-2.182,6.16-4.063,12.434-5.876,18.716
			c-1.306,4.528-1.667,9.359-2.758,13.814C271.524,187.782,269.596,195.775,271.504,204.632z M310.216,314.043
			c0.451,0.26,0.902,0.519,1.354,0.778c4.798-5.063,9.441-10.283,14.434-15.146c5.337-5.198,10.766-10.306,16.843-14.708
			c2.844-2.06,5.262-5.935,2.901-8.784c-3.626-4.38-6.163-8.417-3.89-14.428C324.046,275.287,312.661,292.047,310.216,314.043z
			 M486.011,294.157c-6.973,1.248-13.96,2.42-20.905,3.805c-1.539,0.307-4.004-0.13-4.411,1.624
			c-0.481,2.069,2.099,2.535,3.396,3.673c0.857,0.752,1.528,1.718,2.269,2.6c4.614,5.494,6.751,12.479,11.044,18.196
			c4.732,6.301,6.959,6.302,10.338-0.444c1.262-2.518,2.567-5.013,3.797-7.546c0.724-1.49,1.333-2.968,0.695-4.75
			c-1.471-4.106-1.833-8.387-1.593-12.722C490.822,295.299,489.153,294.07,486.011,294.157z M211.554,290.239
			c-0.827-2.199-2.69-2.593-3.748-3.867c-6.952-8.377-16.096-13.188-26.486-15.576c-5.014-1.152-10.282-0.739-15.378-0.058
			c-1.257,0.168-4.689,0.228-2.814,3.656c2.669,4.879,5.521,9.28,11.611,10.632c7.748,1.72,15.377,3.971,23.066,5.959
			C202.398,292.174,206.934,292.03,211.554,290.239z M392.68,167.993c0.232,4.022,1.954,7.112,2.962,10.412
			c2.426,7.943,3.087,15.436-3.146,22.374c-4.523,5.035-7.606,11.299-14.022,14.666c-1.932,1.015-4.526,3.551-2.606,6.095
			c1.858,2.462,4.41,0.738,6.608-0.689c8.357-5.427,14.809-12.841,20.706-20.63c2.176-2.875,5.118-5.66,5.479-9.845
			C409.567,179.865,403.54,171.127,392.68,167.993z M281.888,384.747c-13.065-5.377-25.406-6.304-37.808-5.159
			c-6.009,0.555-12.083,2.203-17.378,5.599c-1.252,0.803-2.815,1.839-2.592,3.296c0.238,1.55,1.559,2.692,3.294,3.379
			c5.063,2.003,8.668-0.819,12.17-3.568c3.629-2.85,7.412-4.665,11.869-2.545C261.376,390.472,270.944,387.506,281.888,384.747z
			 M476.599,410.938c-9.887,7.887-18.604,16.86-26.854,26.193C464.767,434.729,471.201,423.314,476.599,410.938z M329.103,226.406
			c-1.463,2.819-4.287,4.841-3.728,8.452c0.962,6.201,1.708,12.425,5.458,17.812c0.638,0.916,0.601,2.276,2.142,2.138
			c1.446-0.129,3.026-1.09,2.965-2.254c-0.146-2.769,1.144-6.282-2.144-8.001c-2.146-1.122-2.91-3.257-2.858-4.773
			C331.094,235.206,327.531,231.229,329.103,226.406z"/>
		<path fill-rule="evenodd" clip-rule="evenodd" d="M551,359c-3.006-0.05-4.725,3.374-7.562,3.131
			c-2.989-0.256-6.924,0.082-8.33-3.135c-1.618-3.702-0.268-7.446,2.799-10.216c1.57-1.419,3.575-2.366,5.101-3.823
			c2.777-2.652,5.343-2.797,7.993,0.043C551,349.667,551,354.333,551,359z"/>
		<path fill-rule="evenodd" clip-rule="evenodd" d="M79.5,281.642c-1.128-2.438-2.834-0.978-4.232-0.505
			c-6.382,2.156-12.129,1.235-16.743-3.78c-2.744-2.981-4.485-0.267-6.371,0.765c-1.797,0.982-2.835,2.194-0.859,4.653
			c1.778,2.214,0.329,5.116-1.428,7.134c-1.773,2.037-4.5,1.021-5.084-1.786c-0.234-1.123-0.06-2.325-0.146-3.486
			c-0.083-1.121,0.326-2.335-0.533-3.34c-2.681,2.039-2.698,2.048-1.486,4.48c0.744,1.492,1.435,2.994,0.993,4.711
			c-0.434,1.681-0.009,4.06-2.414,4.411c-2.036,0.298-3.541-1.114-4.081-2.979c-0.937-3.239-5.558-3.377-5.573-7.674
			c-0.021-6.349,5.192-13.354,12.554-15.461c2.849-0.814,5.741-1.477,9.097-2.33c-2.681-3.424-6.381-5.859-5.651-10.589
			c0.228-1.478-1.332-2.134-2.278-3.047c-2.752-2.654-1.064-5.57,0.288-7.829c1.379-2.305,4.387-1.853,6.319-0.687
			c2.526,1.524,5.581,2.157,7.638,4.5c1.901,2.165,3.533,1.046,3.877-1.04c0.46-2.785,2.596-4.631,3.25-7.206
			c0.441-1.734,1.786-2.478,3.307-2.495c1.67-0.02,3.018,1.345,3.099,2.772c0.223,3.954,4.3,5.826,4.813,9.595
			c0.098,0.722,1.627,1.97,2.1,1.809c4.857-1.651,5.71,3.126,8.15,5.104c1.846,1.494,2.087,3.906,0.981,6.358
			c-2.491,5.521-7.81,10.015-6.083,17.133c0.341,1.405-1.561,1.363-2.637,1.646C80.078,282.2,79.789,281.921,79.5,281.642z"/>
		<path fill-rule="evenodd" clip-rule="evenodd" d="M478.806,172.129c-1.345-4.496,0.177-7.19,5.233-9.468
			c4.114-1.852,7.757-0.266,9.322,3.276c2.643,5.98,4.59,3.318,7.274,0.319c3.445-3.848,7.226-7.374,11.493-10.325
			c1.685-1.164,3.653-2.361,5.435-0.656c1.563,1.497,0.082,3.125-0.83,4.445c-1.862,2.698-1.716,6.236-1.776,8.851
			c-0.176,7.66-5.244,12.254-10.136,15.516c-3.225,2.15-4.978,4.265-6.628,7.3c-1.521,2.797,0.29,4.403,1.736,6.141
			c1.988,2.389,4.512,3.949,7.73,3.979c0.708,0.007,1.479-0.564,0.591-1.236c-1.861-1.411-0.865-2.223,0.514-2.83
			c1.05-0.462,1.917,0.177,2.538,1.054c1.053,1.487,0.66,2.859-0.481,4.056c-2.108,2.21-9.785,2.424-12.122,0.361
			c-0.862-0.762-1.67-1.587-3.021-2.136c1.25,4.7,1.986,9.673,6.366,12.855c0.931,0.676,3.456,4.259,3.461-0.82
			c0-0.729,0.835-0.957,1.534-0.886c0.764,0.079,1.153,0.636,1.259,1.334c0.152,1.008,0.094,2-0.666,2.802
			c-1.21,1.276-2.793,1.345-4.156,0.684c-3.073-1.487-5.787-3.048-9.675-2.071c-2.214,0.557-4.229-2.323-3.988-4.812
			c0.778-8.017,0.149-15.116-8.969-18.147c-2.164-6.073-9.142-5.696-13.045-9.74c-3.55-3.678-6.42-7.941-10.252-11.348
			c-0.966-0.858-0.688-2.078,0.028-3.193c1.068-1.666,2.629-1.929,4.362-1.692c5.043,0.686,9.42,3.206,14.005,5.151
			C476.846,171.273,477.742,171.668,478.806,172.129z"/>
		<path fill-rule="evenodd" clip-rule="evenodd" d="M382.294,76.845c3.902,1.252,7.096-1.03,10.483-1.02
			c2.28,0.007,4.991-0.873,6.171,1.858c1.203,2.787-0.871,4.264-3.07,5.398c-2.348,1.211-3.029,3.84-4.65,5.685
			c-3.395,3.863-6.93,6.554-12.285,6.163c-0.613-0.044-1.387,0.174-1.868,0.549c-6.843,5.321-14.556,3.291-22.115,2.741
			c-1.846-0.134-2.761-1.035-2.988-2.708c-0.246-1.807-1.037-3.958-0.373-5.396c2.637-5.716-0.379-9.572-3.54-13.689
			c-1.385-1.803-2.413-4.038-3.019-6.238c-0.706-2.562,0.113-5.16,2.534-6.471c2.44-1.32,3.335,2.224,4.631,2.378
			c7.485,0.896,11.383,10.092,20.267,7.994c7.345-1.733,8.602-4.441,9.377-11.921c0.171-1.65,0.107-3.321-0.817-5.039
			c-1.521,0.037-0.711,3.704-3.062,2.199c-1.983-1.271-1.466-3.228-0.893-4.937c0.65-1.939,2.151-2.425,3.992-1.477
			c4.969,2.556,4.075,7.021,3.383,12.157c3.457-3.814,3.332-7.694,3.113-11.564c-0.093-1.63-0.795-2.444-2.639-1.681
			c-1.454,0.603-2.669,0.009-3.14-1.529c-0.499-1.634-0.575-3.313,0.631-4.731c1.214-1.425,2.491-0.298,3.641,0.114
			c1.995,0.716,3.755,1.75,6.11,1.683c3.116-0.09,3.991,2.326,4.194,5.129c0.56,7.731-3.695,13.187-8.425,18.498
			C386.227,72.913,383.587,73.976,382.294,76.845z"/>
		<path fill-rule="evenodd" clip-rule="evenodd" d="M457.352,494.041c-0.535,3.859,0.891,8.456-1.764,12.923
			c-1.5,2.522-2.591,2.099-4.161,0.99c-6.149-4.341-12.341-8.636-18.291-13.24c-5.451-4.218-8.505-16.071-6.228-22.7
			c1.776-5.169,11.276-9.173,16.174-6.922c9.773,4.492,13.821,12.518,14.259,22.81C457.418,489.729,457.352,491.563,457.352,494.041
			z"/>
		<path fill-rule="evenodd" clip-rule="evenodd" d="M288.652,449.102c-0.642-6.984,1.168-14.008,5.761-20.512
			c3.606-5.106,9.022-6.557,14.327-7.233c3.304-0.421,6.523,2.918,8.512,5.672c3.571,4.942,3.754,15.823-2.588,22.93
			c-3.463,3.88-7.298,7.286-12.045,9.587c-1.466,0.711-2.72,1.848-4.109,2.728c-2.29,1.449-4.51,5.916-6.434,4.211
			c-2.145-1.898-3.502-5.91-3.432-9.574C288.688,454.58,288.652,452.249,288.652,449.102z"/>
		<path fill-rule="evenodd" clip-rule="evenodd" d="M75.213,202.949c0.219,1.295,0.413,2.594,0.663,3.883
			c0.376,1.939,0.383,1.914-1.783,2.834c-1.011,0.429-0.655,1.415-0.721,2.189c-0.906,10.611-6.099,15.374-16.981,15.485
			c-4.816,0.049-9.632,0.029-14.448,0.004c-4.332-0.022-6.916-3.781-5.106-7.848c2.748-6.173,6.23-11.804,10.818-16.968
			c6.929-7.803,18.081-7.81,26.801-3.446C76.552,200.132,75.295,201.598,75.213,202.949z"/>
		<path fill-rule="evenodd" clip-rule="evenodd" d="M352.666,160.626c-0.75-7.51,3.478-14.541,4.307-22.229
			c0.232-2.15,2.071-2.756,3.724-1.467c6.761,5.273,13.168,10.536,16.903,18.95c3.242,7.305,0.278,13.583-0.534,20.238
			c-0.486,3.979-5.795,6.851-9.734,5.541c-8.073-2.684-15.605-7.934-14.672-18.577C352.717,162.422,352.666,161.752,352.666,160.626
			z"/>
		<path fill-rule="evenodd" clip-rule="evenodd" d="M231.401,452.458c-0.974-0.933-1.947-1.864-2.922-2.798
			c-0.057-0.821,0.147-1.783-0.213-2.436c-1.898-3.441-4.477-6.699-3.435-10.979c1.784-7.322,5.271-13.78,11.201-18.504
			c3.004-2.393,5.722-5.015,8.218-7.848c1.049-1.191,1.731-2.554,3.481-1.975c1.796,0.594,2.917,1.933,3.536,3.809
			c2.593,7.856,2.956,16.06,1.872,24.003C251.607,446.956,243.272,455.414,231.401,452.458z"/>
		<path fill-rule="evenodd" clip-rule="evenodd" d="M505.05,355.345c-9.896,0.043-13.904-6.706-11.002-15.4
			c3.39-10.153,11.091-13.428,20.317-15.357c4.026-0.842,7.989-2.027,11.93-3.229c2.968-0.904,3.831,0.976,3.632,3.051
			c-0.449,4.694-0.533,9.625-2.955,13.805c-3.837,6.62-8.13,12.913-15.875,15.724C508.89,354.738,506.803,355.735,505.05,355.345z"
			/>
		<path fill-rule="evenodd" clip-rule="evenodd" d="M139.336,437.771c0.129,8.858-4.484,15.182-13.946,18.867
			c-6.083,2.368-12.582,2.782-18.966,3.613c-4.224,0.551-4.373-2.861-3.633-5.296c3.436-11.297,7.756-22.143,20.124-26.728
			C130.07,425.575,139.237,430.998,139.336,437.771z"/>
		<path fill-rule="evenodd" clip-rule="evenodd" d="M177.351,511.229c-0.001,9.853-6.178,16.843-15.569,18.163
			c-5.725,0.805-11.346,2.196-17.221,2.008c-4.056-0.13-5.006-2.984-3.523-5.216c5.047-7.596,6.958-17.252,15.593-22.579
			c6.089-3.756,13.882-3.769,19.232,0.965C178.224,506.658,176.868,509.225,177.351,511.229z"/>
		<path fill-rule="evenodd" clip-rule="evenodd" d="M93.374,417.008c0.329,7.007-3.519,11.41-8.906,15.329
			c-6.225,4.529-13.203,5.791-20.502,5.918c-4.918,0.086-6.414-2.743-4.634-7.214c2.277-5.715,5.604-10.896,7.663-16.773
			c2.504-7.151,18.178-10.348,24.236-5.564C94.131,410.993,93.115,414.099,93.374,417.008z"/>
		<path fill-rule="evenodd" clip-rule="evenodd" d="M104.035,253.683c-6.027,0.973-11.137-2.436-16.818-2.741
			c-2.747-0.148-3.001-2.939-2.263-5.14c2.532-7.553,17.189-16.633,25.083-15.526c10.065,1.412,10.509,7.428,8.174,15.66
			C116.114,253.328,109.914,253.483,104.035,253.683z"/>
		<path fill-rule="evenodd" clip-rule="evenodd" d="M203.369,511.521c3.42,0.229,5.909,2.833,9.176,3.614
			c1.102,0.264,2.518,1.735,2.626,3.382c0.581,8.841,1.241,17.711-6.388,24.43c-1.485,1.309-2.873,2.74-4.196,4.214
			c-3.865,4.303-4.501,4.406-6.739-0.845c-1.569-3.682-3.908-7.471-3.092-11.66c0.64-3.286-2.583-5.341-1.22-9.347
			c1.869-5.491,4.826-9.43,8.96-12.955C202.787,512.077,203.078,511.799,203.369,511.521z"/>
		<path fill-rule="evenodd" clip-rule="evenodd" d="M199.34,48.476c6.041,0.468,11.89,0.98,16.86,5.17
			c5.13,4.324,6.079,11.581,1.804,16.932c-3.246,4.062-10.905,4.261-15.785,0.974c-6.322-4.258-9.376-10.861-12.929-17.067
			c-1.519-2.653,0.192-4.923,3.126-5.515C194.666,48.515,197.028,48.619,199.34,48.476z"/>
		<path fill-rule="evenodd" clip-rule="evenodd" d="M316.073,29.526c0.395-1.966,0.676-3.37,0.97-4.837
			c4.374,1.438,2.722,5.355,2.756,7.629c0.144,9.326-0.145,18.691-8.156,25.704c-3.134,2.742-6.543,2.493-9.561,1.574
			c-3.081-0.938-4.854-4.052-5.418-7.483c-1.342-8.156,3.066-13.782,8.479-18.825c2.264-2.109,5.09-3.604,7.511-5.562
			C314.618,26.138,315.463,26.801,316.073,29.526z"/>
		<path fill-rule="evenodd" clip-rule="evenodd" d="M520.624,413.676c3.851-0.318,6.845,1.747,9.656,4.038
			c4.083,3.327,6.126,8.141,8.581,12.598c0.861,1.564,1.001,3.694-0.314,5.2c-1.137,1.3-2.744,0.353-4.207,0.234
			c-5.931-0.479-11.853-0.477-17.446-3.22c-6.305-3.092-8.506-12.338-3.433-17.04C515.203,413.871,517.993,413.577,520.624,413.676z
			"/>
		<path fill-rule="evenodd" clip-rule="evenodd" d="M250.548,176.643c1.649,1.568,3.298,3.137,4.948,4.706
			c-0.79,6.499-0.952,13.306-8.072,16.745c-4.037,1.951-8.351,3.062-12.759,3.553c-2.224,0.247-4.444-1.398-3.513-3.589
			c2.566-6.034,3.211-13.091,9.428-17.328C243.709,178.597,247.177,177.871,250.548,176.643z"/>
		<path fill-rule="evenodd" clip-rule="evenodd" d="M248.601,363.391c-1.278-0.294-2.64-1.033-3.821-0.812
			c-10.106,1.894-13.735-6.171-13.994-14.604c-0.105-3.419-2.031-7.962,1.481-10.169c3.631-2.28,5.984,2.334,9.015,3.655
			c6.445,2.809,9.254,7.873,9.824,14.715c0.21,2.523-2.676,3.94-1.631,6.458C249.184,362.886,248.892,363.139,248.601,363.391z"/>
		<path fill-rule="evenodd" clip-rule="evenodd" d="M256.657,339.476c0.17-3.577,3.16-9.396,8.927-13.44
			c3.324-2.331,7.737-2.591,10.705,0.139c2.423,2.227,4.388,4.939,1.999,9.744c-2.97,5.972-6.968,9.153-12.872,10.894
			c-0.631,0.186-1.216,0.534-1.819,0.814C256.631,350.863,256.631,350.863,256.657,339.476z"/>
		<path fill-rule="evenodd" clip-rule="evenodd" d="M249.707,510.719c3.093-0.149,5.872,0.239,8.563,1.152
			c4.381,1.488,5.382,4.741,5.056,9.027c-0.322,4.244-3.178,5.569-6.529,6.251c-5.339,1.086-16.933-4.231-19.455-8.986
			c-1.35-2.545-0.811-4.866,2.366-5.834C243.047,511.312,246.429,510.543,249.707,510.719z"/>
		<path fill-rule="evenodd" clip-rule="evenodd" d="M172.55,103.663c0.046-7.204,2.637-12.378,5.887-17.166
			c2.794-4.117,4.754-3.668,6.78,1.048c1.195,2.782,2.813,5.872,2.923,8.487c0.196,4.639-1.088,9.49-2.596,13.968
			c-0.542,1.609-3.026,3.238-5.923,1.688C175.762,109.624,171.218,108.454,172.55,103.663z"/>
		<path fill-rule="evenodd" clip-rule="evenodd" d="M105.326,392.333c-0.086,5.36-5.102,8.746-9.917,7.396
			c-4.865-1.365-12.11-10.124-12.484-15.092c-0.194-2.57,1.063-4.749,3.489-4.434c5.682,0.74,11.674,1.076,16.044,5.687
			C104.355,387.892,105.642,390.146,105.326,392.333z"/>
		<path fill-rule="evenodd" clip-rule="evenodd" d="M185.521,409.657c-0.621,0.62-1.242,1.239-1.865,1.86
			c-11.665,1.796-18.226-4.663-17-16.624c0.331-3.232,1.859-4.339,4.963-3.545c8.302,2.123,15.291,4.001,13.766,15.831
			C185.281,407.986,185.469,408.831,185.521,409.657z"/>
		<path fill-rule="evenodd" clip-rule="evenodd" d="M504.536,251.348c-5.598-0.068-9.386-2.914-9.731-7.309
			c-0.309-3.932,3.221-7.282,8.55-8.093c3.874-0.59,7.63,0.438,11.386,1.042c2.617,0.422,2.718,2.714,2.267,4.755
			C515.864,246.915,509.913,251.415,504.536,251.348z"/>
		<path fill-rule="evenodd" clip-rule="evenodd" d="M240.353,59.595c1.495,0.087,2.994,0.131,4.483,0.277
			c1.05,0.103,1.879,0.593,2.203,1.707c0.63,2.171-3.781,12.334-5.901,13.57c-3.607,2.104-7.432,2.675-10.731-0.117
			c-3.266-2.765-2.171-6.952-1.363-10.269c0.921-3.783,5.006-4.392,8.337-5.293c0.912-0.247,1.978,0.077,2.973,0.14
			C240.352,59.605,240.353,59.6,240.353,59.595z"/>
		<path fill-rule="evenodd" clip-rule="evenodd" d="M530.038,315.295c-4.39,0.324-8.535-1.53-10.833-5.699
			c-1.223-2.22-1.792-5.912,1.077-7.703c3.381-2.11,7.354-2.302,10.753,0.244c2.825,2.117,4.557,5.296,5.919,8.452
			C538.367,313.861,536.277,315.301,530.038,315.295z"/>
		<path fill-rule="evenodd" clip-rule="evenodd" d="M318.521,478.634c0.256-3.608,0.468-7.134,2.023-10.598
			c1.604-3.569,2.994-5.161,6.165-1.602c0.65,0.729,1.469,1.342,2.295,1.878c2.338,1.518,2.413,3.813,2.13,6.172
			c-0.308,2.549-2.281,3.619-4.435,4.069c-2.388,0.499-4.863,0.578-7.299,0.842C319.109,479.143,318.815,478.888,318.521,478.634z"
			/>
		<path fill-rule="evenodd" clip-rule="evenodd" fill="none" d="M379.026,388.138c-1.665,1.239-1.502,2.712-1.32,3.912
			c1.289,8.533-2.464,14.831-8.769,19.945c-6.404,5.197-12.458,10.755-17.986,17.315c-4.971-10.832-9.782-21.158-14.461-31.544
			c-7.835-17.393-17.628-33.749-26.616-50.531c-2.097-3.917-1.448-6.817,2.371-9.026c1.509-0.872,2.523-2.074,3.396-3.531
			c3.216-5.365,8.17-9.167,12.37-13.649c2.453-2.619,5.646-1.342,8.512-1.763c3.386-0.498,7.068-3.401,10.007-1.248
			c2.7,1.979,2.283,6.35,3.367,9.625c5.052,15.277,16.629,24.473,30.046,31.623c8.344,4.446,16.675,8.877,24.462,14.214
			c10.816,7.414,15.685,18.492,18.242,30.876c4.248,20.572-6.065,36.183-18.054,50.784c-9.567,11.652-21.817,20.226-35.859,25.975
			c-1.462,0.599-3.766,2.506-4.52-1.167c-2.228-10.854-4.503-21.698-6.873-32.522c-2.194-10.024,3.096-16.875,9.852-22.888
			c3.757-3.343,7.063-7.021,10.105-10.945C382.377,407.039,383.181,394.643,379.026,388.138z M330.023,336.604
			c-4.448-1.035-8.593,1.275-12.236,5.061c-3.034,3.152-4.373,7.204-2.755,10.911c1.709,3.914,4.462,7.648,9.385,8.692
			c12.028,2.551,21.999-2.035,31.342-8.851c2.354-1.718,2.411-5.068,0.681-6.012C348.447,342.049,340.947,336.077,330.023,336.604z
			 M367.329,391.629c0-2.886,0.092-5.049-0.02-7.202c-0.199-3.849-3.114-5.977-6.319-4.153c-7.269,4.133-14.49,8.363-17.773,16.894
			c-2.28,5.926-0.312,13.628,4.378,16.111c4.393,2.326,14.452-0.964,17.567-9.433C366.698,399.671,368.226,395.488,367.329,391.629z
			 M391.218,454.314c5.758,0.086,8.059-3.159,5.669-7.521c-3.274-5.979-6.417-12.188-12.002-16.573
			c-6.237-4.898-16.932-2.536-19.806,4.432c-0.745,1.807,3.244,11.188,5.442,13.019
			C376.865,452.953,384.951,452.472,391.218,454.314z M383.545,373.427c-0.226-2.305,0.4-5.333-0.832-6.783
			c-4.129-4.861-8.695-9.394-15.342-11.017c-3.355-0.819-4.55-0.34-4.865,3.517c-0.461,5.636,1.363,10.756,2.561,15.972
			c1.197,5.213,7.059,8.757,11.545,7.934C383.03,381.87,383.351,381.414,383.545,373.427z M389.062,417.27
			c7.21,0.054,14.858-8.481,14.244-15.354c-0.21-2.347-1.388-3.739-3.453-2.892c-5.452,2.238-12.101,2.476-15.248,8.861
			c-0.952,1.93-2.705,3.577-1.217,5.852C384.773,415.854,386.385,417.811,389.062,417.27z"/>
		<path fill-rule="evenodd" clip-rule="evenodd" fill="none" d="M428.198,386.389c-4.738-9.083-11.214-16.393-19.706-21.828
			c-2.648-1.695-5.574-2.95-8.301-4.533c-6.132-3.56-7.636-8.795-4.552-15.447c3.068-6.618,7.138-12.787,8.97-19.961
			c1.16-4.54,1.447-8.953-2.281-13.087c0.431,11.084-3.818,20.221-10.669,28.27c-0.754-6.119-4.461-10.19-10.326-11.442
			c-1.102-0.235-2.282-0.36-2.362,0.86c-0.281,4.262-1.477,8.774,0.646,12.71c1.792,3.322,4.979,5.266,9.136,4.367
			c-0.374,7.371-0.955,7.819-7.068,4.533c-8.784-4.723-17.597-9.485-23.309-18.941c3.807,2.257,7.199,1.504,9.902-1.012
			c2.58-2.4,3.708-5.684,3.059-9.31c-0.493-2.755,1.591-6.488-2.022-8.043c-3.289-1.416-5.912,1.27-8.411,3
			c-3.019,2.09-6.029,4.34-6.98,8.562c-1.051-7.172-1.051-14.522-6.543-20.894c-0.17,0.449-0.325,0.893-0.503,1.328
			c-0.774,1.897,0.949,5.078-1.746,5.713c-3.116,0.734-6.485,2.521-9.707,0.871c-3.877-1.984-7.129-2.016-10.146,1.662
			c4.454-6.266,9.001-12.298,15.305-16.513c5.332-3.565,10.063-7.429,12.936-13.35c2.729-5.625,7.796-7.839,13.698-8.561
			c5.895-0.721,10.146-4.688,14.911-7.614c2.39-1.467,3.727-4.881,7.562-3.46c5.309,1.966,9.112,5.673,10.4,10.925
			c-11.393-4.607-18.648,1.512-25.146,9.417c-1.849,2.25-3.589,4.613-5.157,7.066c-2.623,4.104-1.13,7.36,3.646,7.566
			c5.82,0.251,11.672,0.3,17.485-0.02c5.169-0.284,11.239-6.075,12.969-12.109c1.319,2.471,2.521,4.531,3.547,6.677
			c2.891,6.055,7.747,9.961,13.893,12.118c2.521,0.885,3.351,2.021,3.361,4.579c0.07,17.758,2.818,35.352,3.259,53.118
			C428.133,371.164,428.409,378.698,428.198,386.389z M419.352,351.263c0.885-4.954-0.61-9.964-5.465-13.989
			c-2.372-1.966-4.443-3.314-7.535-1.815c-3.105,1.505-5.227,3.238-5.831,7.193c-1.31,8.568,4.589,12.524,9.921,16.785
			c2.058,1.644,4.864,3.925,7.659,2.303c2.438-1.415,0.919-4.574,1.233-6.946C419.442,353.976,419.352,353.132,419.352,351.263z"/>
		<path fill-rule="evenodd" clip-rule="evenodd" fill="none" d="M438.353,405.308c0-12.123-0.091-23.716,0.025-35.307
			c0.121-12.161-1.853-24.184-3.572-36.087c-1.382-9.558,1.36-16.428,7.295-22.964c7.77-8.557,15.326-7.921,21.896,1.89
			c2.396,3.577,4.62,7.269,6.968,10.878c1.998,3.073,3.948,6.281,7.683,7.521c3.563,1.184,3.456,3.129,1.892,6.019
			c-7.693,14.213-16.818,27.438-27.48,39.555c-4.89,5.557-9.371,10.939-9.759,18.937
			C443.137,399.087,442.538,403.144,438.353,405.308z M450.632,365.341c5.169,0.101,11.537-3.596,14.837-7.69
			c4.716-5.854,5.527-13.125,7.643-19.854c1.68-5.344-1.15-7.293-6.613-5.388c-1.404,0.49-2.91,0.738-4.245,1.361
			c-8.378,3.914-17.647,6.36-20.902,17.064C439.32,357.511,443.565,365.203,450.632,365.341z"/>
		<path fill-rule="evenodd" clip-rule="evenodd" fill="none" d="M264.552,119.829c-4.524-1.612-5.499,1.274-6.106,3.43
			c-0.661,2.345,1.603,3.403,3.557,3.972c3.32,0.967,5.734,3.034,8.084,5.486c1.025,1.069,1.82,4.146,4.942,1.604
			c1.295-1.055,1.656,1.817,1.49,3.13c-0.862,6.826-3.648,9.185-10.614,9.197c-1.166,0.002-2.333-0.029-3.498,0.021
			c-4.972,0.212-7.553,2.587-7.748,7.094c-0.269,6.218,1.521,8.788,6.751,9.563c1.597,0.237,3.219,0.298,5.068,0.46
			c-1.099,2.589-2.712,4.952-3.395,7.799c-0.569,2.372-2.121,2.988-3.985,0.472c-8.25-11.137-14.931-23.157-18.172-36.623
			c-1.863-7.737-0.856-15.858,1.127-23.677c0.895-3.526,1.736-7.075,2.83-10.542c1.097-3.474,3.281-3.312,5.36-0.948
			c2.346,2.668,5.329,5.298,0.984,9.067c-1.178,1.022-2.291,3.559-0.923,5.512c1.48,2.113,2.992-0.142,4.397-0.467
			C259.025,113.378,261.286,116.11,264.552,119.829z"/>
		<path fill-rule="evenodd" clip-rule="evenodd" fill="none" d="M423.22,237.837c4.108-1.836,7.722-3.738,11.767-1.355
			c2.104,1.239,2.815,2.508,1.5,5.248c-6.22,12.96-9.792,26.691-10.84,41.053c-0.289,3.965-1.398,7.854-1.027,11.882
			c0.196,2.135-0.956,2.685-2.778,1.992c-5.173-1.965-10.054-3.942-11.841-10.237c-2.021-7.119-3.889-14.378-9.233-20.155
			c-1.863-2.013-3.696-3.688-6.097-4.893c-2.177-1.092-2.734-2.617-1.091-4.716c6.333-8.085,13.897-13.417,24.871-11.617
			c3.089,0.507,6.797-0.538,8.396-2.239C429.617,239.852,425.31,239.461,423.22,237.837z M411.235,273.154
			c7.366,0.079,15.534-9.947,13.958-17.076c-0.426-1.924-1.426-3.074-3.442-2.663c-7.011,1.427-13.397,3.78-16.312,11.237
			C403.802,268.838,406.646,273.105,411.235,273.154z"/>
		<path fill-rule="evenodd" clip-rule="evenodd" fill="none" d="M271.504,204.632c-1.908-8.856,0.021-16.85,2.048-25.125
			c1.092-4.455,1.452-9.286,2.758-13.814c1.812-6.282,3.694-12.556,5.876-18.716c0.592-1.673,2.11-4.341,3.88-3.782
			c1.98,0.625,4.134,1.251,5.887,3.683c5.389,7.479,0.651,13.21-2.096,19.366c-1.369,3.068-3.064,5.835-3.044,9.484
			c0.028,5.121-0.164,10.941-5.097,13.753c-4.729,2.695-4.917,6.671-5.648,10.955C275.722,202.474,273.991,203.67,271.504,204.632z"
			/>
		<path fill-rule="evenodd" clip-rule="evenodd" fill="none" d="M310.216,314.043c2.445-21.996,13.83-38.756,31.642-52.287
			c-2.273,6.011,0.264,10.048,3.89,14.428c2.36,2.85-0.058,6.725-2.901,8.784c-6.077,4.402-11.506,9.51-16.843,14.708
			c-4.992,4.862-9.636,10.082-14.434,15.146C311.118,314.562,310.667,314.303,310.216,314.043z"/>
		<path fill-rule="evenodd" clip-rule="evenodd" fill="none" d="M486.011,294.157c3.143-0.087,4.812,1.142,4.629,4.436
			c-0.24,4.335,0.122,8.615,1.593,12.722c0.638,1.782,0.028,3.26-0.695,4.75c-1.229,2.533-2.535,5.028-3.797,7.546
			c-3.379,6.746-5.605,6.745-10.338,0.444c-4.293-5.717-6.43-12.702-11.044-18.196c-0.74-0.882-1.411-1.848-2.269-2.6
			c-1.297-1.138-3.877-1.604-3.396-3.673c0.407-1.754,2.872-1.317,4.411-1.624C472.051,296.577,479.038,295.405,486.011,294.157z"/>
		<path fill-rule="evenodd" clip-rule="evenodd" fill="none" d="M211.554,290.239c-4.62,1.791-9.155,1.935-13.749,0.746
			c-7.689-1.988-15.318-4.239-23.066-5.959c-6.09-1.352-8.942-5.753-11.611-10.632c-1.875-3.429,1.557-3.488,2.814-3.656
			c5.097-0.682,10.365-1.095,15.378,0.058c10.391,2.388,19.535,7.199,26.486,15.576C208.864,287.646,210.727,288.04,211.554,290.239
			z"/>
		<path fill-rule="evenodd" clip-rule="evenodd" fill="none" d="M392.68,167.993c10.86,3.134,16.888,11.872,15.981,22.383
			c-0.361,4.185-3.304,6.97-5.479,9.845c-5.897,7.789-12.349,15.203-20.706,20.63c-2.198,1.428-4.75,3.151-6.608,0.689
			c-1.92-2.544,0.675-5.08,2.606-6.095c6.416-3.367,9.499-9.631,14.022-14.666c6.232-6.938,5.571-14.431,3.146-22.374
			C394.634,175.105,392.912,172.016,392.68,167.993z"/>
		<path fill-rule="evenodd" clip-rule="evenodd" fill="none" d="M281.888,384.747c-10.944,2.759-20.512,5.725-30.444,1.001
			c-4.458-2.12-8.24-0.305-11.869,2.545c-3.502,2.749-7.107,5.571-12.17,3.568c-1.735-0.687-3.056-1.829-3.294-3.379
			c-0.224-1.457,1.34-2.493,2.592-3.296c5.294-3.396,11.369-5.044,17.378-5.599C256.482,378.443,268.823,379.37,281.888,384.747z"/>
		<path fill-rule="evenodd" clip-rule="evenodd" fill="none" d="M476.599,410.938c-5.397,12.377-11.832,23.791-26.854,26.193
			C457.995,427.798,466.712,418.824,476.599,410.938z"/>
		<path fill-rule="evenodd" clip-rule="evenodd" fill="none" d="M329.103,226.406c-1.571,4.823,1.991,8.8,1.835,13.373
			c-0.052,1.517,0.712,3.651,2.858,4.773c3.287,1.719,1.997,5.232,2.144,8.001c0.062,1.164-1.519,2.125-2.965,2.254
			c-1.541,0.139-1.504-1.222-2.142-2.138c-3.75-5.387-4.496-11.61-5.458-17.812C324.815,231.247,327.64,229.226,329.103,226.406z"/>
		<path fill-rule="evenodd" clip-rule="evenodd" d="M330.023,336.604c10.924-0.527,18.424,5.444,26.416,9.802
			c1.73,0.943,1.674,4.294-0.681,6.012c-9.343,6.815-19.313,11.401-31.342,8.851c-4.923-1.044-7.676-4.778-9.385-8.692
			c-1.618-3.707-0.279-7.759,2.755-10.911C321.431,337.88,325.575,335.569,330.023,336.604z"/>
		<path fill-rule="evenodd" clip-rule="evenodd" d="M367.329,391.629c0.896,3.859-0.631,8.042-2.167,12.217
			c-3.115,8.469-13.175,11.759-17.567,9.433c-4.69-2.483-6.658-10.186-4.378-16.111c3.283-8.53,10.505-12.761,17.773-16.894
			c3.205-1.823,6.12,0.305,6.319,4.153C367.421,386.58,367.329,388.743,367.329,391.629z"/>
		<path fill-rule="evenodd" clip-rule="evenodd" d="M391.218,454.314c-6.267-1.843-14.353-1.361-20.696-6.645
			c-2.198-1.831-6.188-11.212-5.442-13.019c2.874-6.968,13.568-9.33,19.806-4.432c5.585,4.386,8.728,10.594,12.002,16.573
			C399.276,451.155,396.976,454.4,391.218,454.314z"/>
		<path fill-rule="evenodd" clip-rule="evenodd" d="M383.545,373.427c-0.194,7.987-0.515,8.443-6.934,9.622
			c-4.486,0.823-10.348-2.721-11.545-7.934c-1.197-5.216-3.021-10.336-2.561-15.972c0.315-3.856,1.51-4.336,4.865-3.517
			c6.646,1.623,11.213,6.155,15.342,11.017C383.945,368.094,383.319,371.122,383.545,373.427z"/>
		<path fill-rule="evenodd" clip-rule="evenodd" d="M389.062,417.27c-2.678,0.541-4.289-1.415-5.674-3.532
			c-1.488-2.274,0.265-3.922,1.217-5.852c3.147-6.386,9.796-6.623,15.248-8.861c2.065-0.848,3.243,0.545,3.453,2.892
			C403.921,408.788,396.272,417.323,389.062,417.27z"/>
		<path fill-rule="evenodd" clip-rule="evenodd" d="M419.352,351.263c0,1.869,0.091,2.713-0.018,3.53
			c-0.314,2.372,1.205,5.531-1.233,6.946c-2.795,1.622-5.602-0.659-7.659-2.303c-5.332-4.261-11.23-8.217-9.921-16.785
			c0.604-3.955,2.726-5.688,5.831-7.193c3.092-1.499,5.163-0.15,7.535,1.815C418.741,341.299,420.236,346.309,419.352,351.263z"/>
		<path fill-rule="evenodd" clip-rule="evenodd" d="M450.632,365.341c-7.066-0.138-11.312-7.83-9.281-14.507
			c3.255-10.704,12.524-13.15,20.902-17.064c1.335-0.623,2.841-0.871,4.245-1.361c5.463-1.905,8.293,0.044,6.613,5.388
			c-2.115,6.729-2.927,14.001-7.643,19.854C462.169,361.745,455.801,365.441,450.632,365.341z"/>
		<path fill-rule="evenodd" clip-rule="evenodd" d="M411.235,273.154c-4.59-0.049-7.434-4.316-5.797-8.502
			c2.915-7.457,9.302-9.811,16.312-11.237c2.017-0.411,3.017,0.739,3.442,2.663C426.77,263.207,418.602,273.233,411.235,273.154z"/>
	</g>
</g>
</svg>
